<?xml version="1.0" encoding="UTF-8" standalone="no"?>
<!DOCTYPE svg PUBLIC "-//W3C//DTD SVG 1.1//EN"
 "http://www.w3.org/Graphics/SVG/1.1/DTD/svg11.dtd">
<!-- Generated by graphviz version 2.41.20190407.0914 (20190407.0914)
 -->
<!-- Title: tinyllama_architecture_intermediate Pages: 1 -->
<svg width="1467pt" height="2492pt"
 viewBox="0.00 0.00 352.10 598.00" xmlns="http://www.w3.org/2000/svg" xmlns:xlink="http://www.w3.org/1999/xlink">
<g id="graph0" class="graph" transform="scale(0.93 0.93) rotate(0) translate(21.6 2306.6)">
<title>tinyllama_architecture_intermediate</title>
<polygon fill="white" stroke="transparent" points="-21.6,21.6 -21.6,-2306.6 1349.25,-2306.6 1349.25,21.6 -21.6,21.6"/>
<text text-anchor="middle" x="663.82" y="-9.6" font-family="Sans-Serif" font-size="18.00" fill="#2d3436">tinyllama_architecture_intermediate</text>
<g id="clust1" class="cluster">
<title>cluster_Edge / API
[EPIC: API]</title>
<path fill="#e5f5fd" stroke="#aeb6be" stroke-width="2" d="M661.32,-1865C661.32,-1865 1060.96,-1865 1060.96,-1865 1066.96,-1865 1072.96,-1871 1072.96,-1877 1072.96,-1877 1072.96,-2265 1072.96,-2265 1072.96,-2271 1066.96,-2277 1060.96,-2277 1060.96,-2277 661.32,-2277 661.32,-2277 655.32,-2277 649.32,-2271 649.32,-2265 649.32,-2265 649.32,-1877 649.32,-1877 649.32,-1871 655.32,-1865 661.32,-1865"/>
<text text-anchor="middle" x="688.82" y="-2263.4" font-family="Sans-Serif" font-size="12.00" fill="#2d3436">Edge / API</text>
<text text-anchor="middle" x="688.82" y="-2250.4" font-family="Sans-Serif" font-size="12.00" fill="#2d3436">[EPIC: API]</text>
</g>
<g id="clust3" class="cluster">
<title>cluster_CI / AMI Pipeline
[EPIC: CI/CD]</title>
<path fill="#e5f5fd" stroke="#aeb6be" stroke-width="2" d="M22.09,-1005C22.09,-1005 784.84,-1005 784.84,-1005 790.84,-1005 796.84,-1011 796.84,-1017 796.84,-1017 796.84,-1629 796.84,-1629 796.84,-1635 790.84,-1641 784.84,-1641 784.84,-1641 22.09,-1641 22.09,-1641 16.09,-1641 10.09,-1635 10.09,-1629 10.09,-1629 10.09,-1017 10.09,-1017 10.09,-1011 16.09,-1005 22.09,-1005"/>
<text text-anchor="middle" x="63.59" y="-1627.4" font-family="Sans-Serif" font-size="12.00" fill="#2d3436">CI / AMI Pipeline</text>
<text text-anchor="middle" x="63.59" y="-1614.4" font-family="Sans-Serif" font-size="12.00" fill="#2d3436">[EPIC: CI/CD]</text>
</g>
<g id="clust2" class="cluster">
<title>cluster_VPC Private
[EPIC: EC2]</title>
<path fill="#e5f5fd" stroke="#aeb6be" stroke-width="2" d="M336.03,-36C336.03,-36 1305.56,-36 1305.56,-36 1311.56,-36 1317.56,-42 1317.56,-48 1317.56,-48 1317.56,-467 1317.56,-467 1317.56,-473 1311.56,-479 1305.56,-479 1305.56,-479 336.03,-479 336.03,-479 330.03,-479 324.03,-473 324.03,-467 324.03,-467 324.03,-48 324.03,-48 324.03,-42 330.03,-36 336.03,-36"/>
<text text-anchor="middle" x="364.03" y="-465.4" font-family="Sans-Serif" font-size="12.00" fill="#2d3436">VPC Private</text>
<text text-anchor="middle" x="364.03" y="-452.4" font-family="Sans-Serif" font-size="12.00" fill="#2d3436">[EPIC: EC2]</text>
</g>
<!-- 6d9ba7f41c974b4ab58ad2688ee37833 -->
<g id="node1" class="node">
<title>6d9ba7f41c974b4ab58ad2688ee37833</title>
<image xlink:href="C:\Users\qxo0881\AppData\Local\Programs\Python\Python310\lib\site-packages\resources/onprem/client\user.png" width="101px" height="101px" preserveAspectRatio="xMinYMin meet" x="347.06" y="-2037.5"/>
<text text-anchor="middle" x="397.56" y="-1921.6" font-family="Sans-Serif" font-size="13.00" fill="#2d3436">Desktop GUI</text>
<text text-anchor="middle" x="397.56" y="-1907.6" font-family="Sans-Serif" font-size="13.00" fill="#2d3436">[EPIC: GUI]</text>
</g>
<!-- 642243f8a7844406bf35caf624bb47c5 -->
<g id="node2" class="node">
<title>642243f8a7844406bf35caf624bb47c5</title>
<image xlink:href="C:\Users\qxo0881\AppData\Local\Programs\Python\Python310\lib\site-packages\resources/aws/network\cloudfront.png" width="101px" height="101px" preserveAspectRatio="xMinYMin meet" x="673.06" y="-2202.5"/>
<text text-anchor="middle" x="723.56" y="-2086.6" font-family="Sans-Serif" font-size="13.00" fill="#2d3436">CloudFront</text>
<text text-anchor="middle" x="723.56" y="-2072.6" font-family="Sans-Serif" font-size="13.00" fill="#2d3436">(optional)</text>
</g>
<!-- 6d9ba7f41c974b4ab58ad2688ee37833&#45;&gt;642243f8a7844406bf35caf624bb47c5 -->
<g id="edge1" class="edge">
<title>6d9ba7f41c974b4ab58ad2688ee37833&#45;&gt;642243f8a7844406bf35caf624bb47c5</title>
<path fill="none" stroke="#333333" stroke-width="2" d="M448.33,-2049C537.66,-2049 713.56,-2049 713.56,-2049 713.56,-2049 713.56,-2058.86 713.56,-2058.86"/>
<polygon fill="#333333" stroke="#333333" stroke-width="2" points="710.06,-2058.86 713.56,-2068.86 717.06,-2058.86 710.06,-2058.86"/>
<text text-anchor="middle" x="560.56" y="-2148.6" font-family="Sans-Serif" font-size="13.00" fill="#2d3436">HTTPS</text>
</g>
<!-- bd16cf85048041cabfb8ab50980579e1 -->
<g id="node4" class="node">
<title>bd16cf85048041cabfb8ab50980579e1</title>
<image xlink:href="C:\Users\qxo0881\AppData\Local\Programs\Python\Python310\lib\site-packages\resources/aws/security\cognito.png" width="101px" height="101px" preserveAspectRatio="xMinYMin meet" x="673.06" y="-1992.5"/>
<text text-anchor="middle" x="723.56" y="-1877.1" font-family="Sans-Serif" font-size="13.00" fill="#2d3436">Cognito JWT</text>
</g>
<!-- 6d9ba7f41c974b4ab58ad2688ee37833&#45;&gt;bd16cf85048041cabfb8ab50980579e1 -->
<g id="edge3" class="edge">
<title>6d9ba7f41c974b4ab58ad2688ee37833&#45;&gt;bd16cf85048041cabfb8ab50980579e1</title>
<path fill="none" stroke="#333333" stroke-width="2" stroke-dasharray="1,5" d="M448.14,-1957.25C448.14,-1957.25 662.86,-1957.25 662.86,-1957.25"/>
<polygon fill="#333333" stroke="#333333" stroke-width="2" points="662.86,-1960.75 672.86,-1957.25 662.86,-1953.75 662.86,-1960.75"/>
<text text-anchor="middle" x="560.56" y="-1952.6" font-family="Sans-Serif" font-size="13.00" fill="#2d3436">OAuth flow</text>
</g>
<!-- 642243f8a7844406bf35caf624bb47c5&#45;&gt;6d9ba7f41c974b4ab58ad2688ee37833 -->
<g id="edge25" class="edge">
<title>642243f8a7844406bf35caf624bb47c5&#45;&gt;6d9ba7f41c974b4ab58ad2688ee37833</title>
<path fill="none" stroke="green" stroke-width="2" stroke-dasharray="5,2" d="M693.56,-2068.95C693.56,-2062.84 693.56,-2059 693.56,-2059 693.56,-2059 458.11,-2059 458.11,-2059"/>
<polygon fill="green" stroke="green" stroke-width="2" points="458.11,-2055.5 448.11,-2059 458.11,-2062.5 458.11,-2055.5"/>
<text text-anchor="middle" x="560.56" y="-2057.6" font-family="Sans-Serif" font-size="13.00" fill="#2d3436">Response</text>
</g>
<!-- 7b1af222d0a54821addd5ad3d0c4894e -->
<g id="node3" class="node">
<title>7b1af222d0a54821addd5ad3d0c4894e</title>
<image xlink:href="C:\Users\qxo0881\AppData\Local\Programs\Python\Python310\lib\site-packages\resources/aws/network\api-gateway.png" width="101px" height="101px" preserveAspectRatio="xMinYMin meet" x="949.06" y="-2006.5"/>
<text text-anchor="middle" x="999.56" y="-1890.6" font-family="Sans-Serif" font-size="13.00" fill="#2d3436">API Gateway</text>
<text text-anchor="middle" x="999.56" y="-1876.6" font-family="Sans-Serif" font-size="13.00" fill="#2d3436">HTTP API</text>
</g>
<!-- 642243f8a7844406bf35caf624bb47c5&#45;&gt;7b1af222d0a54821addd5ad3d0c4894e -->
<g id="edge2" class="edge">
<title>642243f8a7844406bf35caf624bb47c5&#45;&gt;7b1af222d0a54821addd5ad3d0c4894e</title>
<path fill="none" stroke="#333333" stroke-width="2" d="M754.56,-2068.93C754.56,-2047.09 754.56,-2029.5 754.56,-2029.5 754.56,-2029.5 938.8,-2029.5 938.8,-2029.5"/>
<polygon fill="#333333" stroke="#333333" stroke-width="2" points="938.8,-2033 948.8,-2029.5 938.8,-2026 938.8,-2033"/>
</g>
<!-- 7b1af222d0a54821addd5ad3d0c4894e&#45;&gt;642243f8a7844406bf35caf624bb47c5 -->
<g id="edge24" class="edge">
<title>7b1af222d0a54821addd5ad3d0c4894e&#45;&gt;642243f8a7844406bf35caf624bb47c5</title>
<path fill="none" stroke="green" stroke-width="2" stroke-dasharray="5,2" d="M948.78,-2020C871.83,-2020 734.56,-2020 734.56,-2020 734.56,-2020 734.56,-2058.78 734.56,-2058.78"/>
<polygon fill="green" stroke="green" stroke-width="2" points="731.06,-2058.78 734.56,-2068.78 738.06,-2058.78 731.06,-2058.78"/>
<text text-anchor="middle" x="861.56" y="-2130.6" font-family="Sans-Serif" font-size="13.00" fill="#2d3436">Response</text>
</g>
<!-- 33c26a45ee7d4713bbcf32441579cc9e -->
<g id="node5" class="node">
<title>33c26a45ee7d4713bbcf32441579cc9e</title>
<image xlink:href="C:\Users\qxo0881\AppData\Local\Programs\Python\Python310\lib\site-packages\resources/aws/compute\lambda.png" width="101px" height="101px" preserveAspectRatio="xMinYMin meet" x="673.06" y="-1782.5"/>
<text text-anchor="middle" x="723.56" y="-1666.6" font-family="Sans-Serif" font-size="13.00" fill="#2d3436">Lambda Router v2</text>
<text text-anchor="middle" x="723.56" y="-1652.6" font-family="Sans-Serif" font-size="13.00" fill="#2d3436">[EPIC: Lambda]</text>
</g>
<!-- 7b1af222d0a54821addd5ad3d0c4894e&#45;&gt;33c26a45ee7d4713bbcf32441579cc9e -->
<g id="edge5" class="edge">
<title>7b1af222d0a54821addd5ad3d0c4894e&#45;&gt;33c26a45ee7d4713bbcf32441579cc9e</title>
<path fill="none" stroke="#333333" stroke-width="2" d="M1025.56,-1872.84C1025.56,-1815.14 1025.56,-1748.6 1025.56,-1748.6 1025.56,-1748.6 784.11,-1748.6 784.11,-1748.6"/>
<polygon fill="#333333" stroke="#333333" stroke-width="2" points="784.11,-1745.1 774.11,-1748.6 784.11,-1752.1 784.11,-1745.1"/>
</g>
<!-- bd16cf85048041cabfb8ab50980579e1&#45;&gt;7b1af222d0a54821addd5ad3d0c4894e -->
<g id="edge4" class="edge">
<title>bd16cf85048041cabfb8ab50980579e1&#45;&gt;7b1af222d0a54821addd5ad3d0c4894e</title>
<path fill="none" stroke="#333333" stroke-width="2" stroke-dasharray="1,5" d="M774.18,-1942C774.18,-1942 938.79,-1942 938.79,-1942"/>
<polygon fill="#333333" stroke="#333333" stroke-width="2" points="938.79,-1945.5 948.79,-1942 938.79,-1938.5 938.79,-1945.5"/>
<text text-anchor="middle" x="861.56" y="-1952.6" font-family="Sans-Serif" font-size="13.00" fill="#2d3436">Authorizer</text>
</g>
<!-- 33c26a45ee7d4713bbcf32441579cc9e&#45;&gt;7b1af222d0a54821addd5ad3d0c4894e -->
<g id="edge23" class="edge">
<title>33c26a45ee7d4713bbcf32441579cc9e&#45;&gt;7b1af222d0a54821addd5ad3d0c4894e</title>
<path fill="none" stroke="green" stroke-width="2" stroke-dasharray="5,2" d="M774.18,-1781.8C853.86,-1781.8 999.56,-1781.8 999.56,-1781.8 999.56,-1781.8 999.56,-1862.98 999.56,-1862.98"/>
<polygon fill="green" stroke="green" stroke-width="2" points="996.06,-1862.98 999.56,-1872.98 1003.06,-1862.98 996.06,-1862.98"/>
<text text-anchor="middle" x="861.56" y="-1755.6" font-family="Sans-Serif" font-size="13.00" fill="#2d3436">Response</text>
</g>
<!-- 69131146a20d4fe180599ec279a4cfbc -->
<g id="node6" class="node">
<title>69131146a20d4fe180599ec279a4cfbc</title>
<image xlink:href="C:\Users\qxo0881\AppData\Local\Programs\Python\Python310\lib\site-packages\resources/aws/database\elasticache.png" width="101px" height="101px" preserveAspectRatio="xMinYMin meet" x="949.06" y="-1313.5"/>
<text text-anchor="middle" x="999.56" y="-1197.6" font-family="Sans-Serif" font-size="13.00" fill="#2d3436">ElastiCache Redis</text>
<text text-anchor="middle" x="999.56" y="-1183.6" font-family="Sans-Serif" font-size="13.00" fill="#2d3436">(job TTL 5m)</text>
<text text-anchor="middle" x="999.56" y="-1169.6" font-family="Sans-Serif" font-size="13.00" fill="#2d3436">[EPIC: Queue]</text>
</g>
<!-- 33c26a45ee7d4713bbcf32441579cc9e&#45;&gt;69131146a20d4fe180599ec279a4cfbc -->
<g id="edge6" class="edge">
<title>33c26a45ee7d4713bbcf32441579cc9e&#45;&gt;69131146a20d4fe180599ec279a4cfbc</title>
<path fill="none" stroke="#333333" stroke-width="2" d="M774.35,-1715.4C847.7,-1715.4 974.56,-1715.4 974.56,-1715.4 974.56,-1715.4 974.56,-1370.05 974.56,-1370.05"/>
<polygon fill="#333333" stroke="#333333" stroke-width="2" points="978.06,-1370.05 974.56,-1360.05 971.06,-1370.05 978.06,-1370.05"/>
<text text-anchor="middle" x="861.56" y="-1538.6" font-family="Sans-Serif" font-size="13.00" fill="#2d3436">Enqueue</text>
</g>
<!-- 2fcdaf9da11043beba991cb893972d17 -->
<g id="node18" class="node">
<title>2fcdaf9da11043beba991cb893972d17</title>
<image xlink:href="C:\Users\qxo0881\AppData\Local\Programs\Python\Python310\lib\site-packages\resources/aws/management\cloudwatch.png" width="101px" height="101px" preserveAspectRatio="xMinYMin meet" x="949.06" y="-788.5"/>
<text text-anchor="middle" x="999.56" y="-672.6" font-family="Sans-Serif" font-size="13.00" fill="#2d3436">CloudWatch</text>
<text text-anchor="middle" x="999.56" y="-658.6" font-family="Sans-Serif" font-size="13.00" fill="#2d3436">metrics + logs</text>
<text text-anchor="middle" x="999.56" y="-644.6" font-family="Sans-Serif" font-size="13.00" fill="#2d3436">[EPIC: CostOps]</text>
</g>
<!-- 33c26a45ee7d4713bbcf32441579cc9e&#45;&gt;2fcdaf9da11043beba991cb893972d17 -->
<g id="edge22" class="edge">
<title>33c26a45ee7d4713bbcf32441579cc9e&#45;&gt;2fcdaf9da11043beba991cb893972d17</title>
<path fill="none" stroke="#333333" stroke-width="2" d="M774.16,-1682.2C813.55,-1682.2 861.56,-1682.2 861.56,-1682.2 861.56,-1682.2 861.56,-828 861.56,-828 861.56,-828 938.96,-828 938.96,-828"/>
<polygon fill="#333333" stroke="#333333" stroke-width="2" points="938.96,-831.5 948.96,-828 938.96,-824.5 938.96,-831.5"/>
</g>
<!-- 7139aee005fb4900ad60f0b890199fbf -->
<g id="node7" class="node">
<title>7139aee005fb4900ad60f0b890199fbf</title>
<image xlink:href="C:\Users\qxo0881\AppData\Local\Programs\Python\Python310\lib\site-packages\resources/aws/compute\ec2.png" width="101px" height="101px" preserveAspectRatio="xMinYMin meet" x="347.06" y="-390.5"/>
<text text-anchor="middle" x="397.56" y="-274.6" font-family="Sans-Serif" font-size="13.00" fill="#2d3436">EC2 g4dn.xlarge</text>
<text text-anchor="middle" x="397.56" y="-260.6" font-family="Sans-Serif" font-size="13.00" fill="#2d3436">(vLLM)</text>
<text text-anchor="middle" x="397.56" y="-246.6" font-family="Sans-Serif" font-size="13.00" fill="#2d3436">[EPIC: EC2]</text>
</g>
<!-- 69131146a20d4fe180599ec279a4cfbc&#45;&gt;7139aee005fb4900ad60f0b890199fbf -->
<g id="edge7" class="edge">
<title>69131146a20d4fe180599ec279a4cfbc&#45;&gt;7139aee005fb4900ad60f0b890199fbf</title>
<path fill="none" stroke="#333333" stroke-width="2" d="M949.01,-1187.5C804.1,-1187.5 397.56,-1187.5 397.56,-1187.5 397.56,-1187.5 397.56,-447.22 397.56,-447.22"/>
<polygon fill="#333333" stroke="#333333" stroke-width="2" points="401.06,-447.22 397.56,-437.22 394.06,-447.22 401.06,-447.22"/>
<text text-anchor="middle" x="723.56" y="-940.6" font-family="Sans-Serif" font-size="13.00" fill="#2d3436">Dequeue / wake</text>
</g>
<!-- 7139aee005fb4900ad60f0b890199fbf&#45;&gt;33c26a45ee7d4713bbcf32441579cc9e -->
<g id="edge13" class="edge">
<title>7139aee005fb4900ad60f0b890199fbf&#45;&gt;33c26a45ee7d4713bbcf32441579cc9e</title>
<path fill="none" stroke="green" stroke-width="2" stroke-dasharray="5,2" d="M448.24,-427.25C496.09,-427.25 560.56,-427.25 560.56,-427.25 560.56,-427.25 560.56,-1651.13 560.56,-1651.13 560.56,-1651.13 662.88,-1651.13 662.88,-1651.13"/>
<polygon fill="green" stroke="green" stroke-width="2" points="662.88,-1654.63 672.88,-1651.13 662.88,-1647.63 662.88,-1654.63"/>
<text text-anchor="middle" x="560.56" y="-986.6" font-family="Sans-Serif" font-size="13.00" fill="#2d3436">Inference response</text>
</g>
<!-- b94bcb7e31354e6ea147d93762d49306 -->
<g id="node8" class="node">
<title>b94bcb7e31354e6ea147d93762d49306</title>
<image xlink:href="C:\Users\qxo0881\AppData\Local\Programs\Python\Python310\lib\site-packages\resources/aws/storage\elastic-block-store-ebs.png" width="101px" height="101px" preserveAspectRatio="xMinYMin meet" x="673.06" y="-163.5"/>
<text text-anchor="middle" x="723.56" y="-48.1" font-family="Sans-Serif" font-size="13.00" fill="#2d3436">100 GiB gp3 cache</text>
</g>
<!-- 7139aee005fb4900ad60f0b890199fbf&#45;&gt;b94bcb7e31354e6ea147d93762d49306 -->
<g id="edge8" class="edge">
<title>7139aee005fb4900ad60f0b890199fbf&#45;&gt;b94bcb7e31354e6ea147d93762d49306</title>
<path fill="none" stroke="#333333" stroke-width="2" stroke-dasharray="1,5" d="M397.56,-242.74C397.56,-181.13 397.56,-113 397.56,-113 397.56,-113 662.98,-113 662.98,-113"/>
<polygon fill="#333333" stroke="#333333" stroke-width="2" points="662.98,-116.5 672.98,-113 662.98,-109.5 662.98,-116.5"/>
<text text-anchor="middle" x="560.56" y="-191.6" font-family="Sans-Serif" font-size="13.00" fill="#2d3436">Stop/Start</text>
</g>
<!-- 08545396ce4f44598e1f9f70bb07cd94 -->
<g id="node9" class="node">
<title>08545396ce4f44598e1f9f70bb07cd94</title>
<image xlink:href="C:\Users\qxo0881\AppData\Local\Programs\Python\Python310\lib\site-packages\resources/aws/network\nat-gateway.png" width="101px" height="101px" preserveAspectRatio="xMinYMin meet" x="673.06" y="-358.5"/>
<text text-anchor="middle" x="723.56" y="-243.1" font-family="Sans-Serif" font-size="13.00" fill="#2d3436">NAT GW</text>
</g>
<!-- 7139aee005fb4900ad60f0b890199fbf&#45;&gt;08545396ce4f44598e1f9f70bb07cd94 -->
<g id="edge9" class="edge">
<title>7139aee005fb4900ad60f0b890199fbf&#45;&gt;08545396ce4f44598e1f9f70bb07cd94</title>
<path fill="none" stroke="#333333" stroke-width="2" stroke-dasharray="1,5" d="M448.14,-309.75C448.14,-309.75 662.86,-309.75 662.86,-309.75"/>
<polygon fill="#333333" stroke="#333333" stroke-width="2" points="662.86,-313.25 672.86,-309.75 662.86,-306.25 662.86,-313.25"/>
<text text-anchor="middle" x="560.56" y="-327.6" font-family="Sans-Serif" font-size="13.00" fill="#2d3436">HTTPS egress</text>
</g>
<!-- 67351029576141f8900a25b58b64af55 -->
<g id="node11" class="node">
<title>67351029576141f8900a25b58b64af55</title>
<image xlink:href="C:\Users\qxo0881\AppData\Local\Programs\Python\Python310\lib\site-packages\resources/aws/security\key-management-service.png" width="101px" height="101px" preserveAspectRatio="xMinYMin meet" x="1193.06" y="-399.5"/>
<text text-anchor="middle" x="1243.56" y="-284.1" font-family="Sans-Serif" font-size="13.00" fill="#2d3436">KMS CMK</text>
</g>
<!-- 7139aee005fb4900ad60f0b890199fbf&#45;&gt;67351029576141f8900a25b58b64af55 -->
<g id="edge12" class="edge">
<title>7139aee005fb4900ad60f0b890199fbf&#45;&gt;67351029576141f8900a25b58b64af55</title>
<path fill="none" stroke="#333333" stroke-width="2" stroke-dasharray="1,5" d="M448.26,-397C448.26,-397 1182.96,-397 1182.96,-397"/>
<polygon fill="#333333" stroke="#333333" stroke-width="2" points="1182.96,-400.5 1192.96,-397 1182.96,-393.5 1182.96,-400.5"/>
<text text-anchor="middle" x="861.56" y="-426.6" font-family="Sans-Serif" font-size="13.00" fill="#2d3436">Encrypt EBS</text>
</g>
<!-- 8d921abed12a4671bcd7f3f6ed60e273 -->
<g id="node17" class="node">
<title>8d921abed12a4671bcd7f3f6ed60e273</title>
<image xlink:href="C:\Users\qxo0881\AppData\Local\Programs\Python\Python310\lib\site-packages\resources/aws/management\systems-manager.png" width="101px" height="101px" preserveAspectRatio="xMinYMin meet" x="673.06" y="-788.5"/>
<text text-anchor="middle" x="723.56" y="-672.6" font-family="Sans-Serif" font-size="13.00" fill="#2d3436">SSM RunCommand</text>
<text text-anchor="middle" x="723.56" y="-658.6" font-family="Sans-Serif" font-size="13.00" fill="#2d3436">[EPIC: CostOps]</text>
</g>
<!-- 7139aee005fb4900ad60f0b890199fbf&#45;&gt;8d921abed12a4671bcd7f3f6ed60e273 -->
<g id="edge20" class="edge">
<title>7139aee005fb4900ad60f0b890199fbf&#45;&gt;8d921abed12a4671bcd7f3f6ed60e273</title>
<path fill="none" stroke="#333333" stroke-width="2" d="M423.56,-437.11C423.56,-554.93 423.56,-738 423.56,-738 423.56,-738 663.01,-738 663.01,-738"/>
<polygon fill="#333333" stroke="#333333" stroke-width="2" points="663.01,-741.5 673.01,-738 663.01,-734.5 663.01,-741.5"/>
</g>
<!-- 600c52d4b48f41b1801bf479b00c1d70 -->
<g id="node10" class="node">
<title>600c52d4b48f41b1801bf479b00c1d70</title>
<image xlink:href="C:\Users\qxo0881\AppData\Local\Programs\Python\Python310\lib\site-packages\resources/aws/storage\simple-storage-service-s3.png" width="101px" height="101px" preserveAspectRatio="xMinYMin meet" x="949.06" y="-345.5"/>
<text text-anchor="middle" x="999.56" y="-230.1" font-family="Sans-Serif" font-size="13.00" fill="#2d3436">S3 tinyllama&#45;models</text>
</g>
<!-- 08545396ce4f44598e1f9f70bb07cd94&#45;&gt;600c52d4b48f41b1801bf479b00c1d70 -->
<g id="edge10" class="edge">
<title>08545396ce4f44598e1f9f70bb07cd94&#45;&gt;600c52d4b48f41b1801bf479b00c1d70</title>
<path fill="none" stroke="#333333" stroke-width="2" d="M774.18,-301.5C774.18,-301.5 938.79,-301.5 938.79,-301.5"/>
<polygon fill="#333333" stroke="#333333" stroke-width="2" points="938.79,-305 948.79,-301.5 938.79,-298 938.79,-305"/>
</g>
<!-- 600c52d4b48f41b1801bf479b00c1d70&#45;&gt;67351029576141f8900a25b58b64af55 -->
<g id="edge11" class="edge">
<title>600c52d4b48f41b1801bf479b00c1d70&#45;&gt;67351029576141f8900a25b58b64af55</title>
<path fill="none" stroke="#333333" stroke-width="2" stroke-dasharray="1,5" d="M1050.12,-322C1050.12,-322 1182.65,-322 1182.65,-322"/>
<polygon fill="#333333" stroke="#333333" stroke-width="2" points="1182.65,-325.5 1192.65,-322 1182.65,-318.5 1182.65,-325.5"/>
<text text-anchor="middle" x="1121.56" y="-316.6" font-family="Sans-Serif" font-size="13.00" fill="#2d3436">Encrypt</text>
</g>
<!-- d45760e461ff47fe95ea6c81b74ee1a2 -->
<g id="node12" class="node">
<title>d45760e461ff47fe95ea6c81b74ee1a2</title>
<image xlink:href="C:\Users\qxo0881\AppData\Local\Programs\Python\Python310\lib\site-packages\resources/aws/security\secrets-manager.png" width="101px" height="101px" preserveAspectRatio="xMinYMin meet" x="33.0605" y="-1342.5"/>
<text text-anchor="middle" x="83.56" y="-1226.6" font-family="Sans-Serif" font-size="13.00" fill="#2d3436">Secrets Manager</text>
<text text-anchor="middle" x="83.56" y="-1212.6" font-family="Sans-Serif" font-size="13.00" fill="#2d3436">[EPIC: CI/CD]</text>
</g>
<!-- d45760e461ff47fe95ea6c81b74ee1a2&#45;&gt;33c26a45ee7d4713bbcf32441579cc9e -->
<g id="edge14" class="edge">
<title>d45760e461ff47fe95ea6c81b74ee1a2&#45;&gt;33c26a45ee7d4713bbcf32441579cc9e</title>
<path fill="none" stroke="#333333" stroke-width="2" d="M134.1,-1303C180,-1303 240.56,-1303 240.56,-1303 240.56,-1303 240.56,-1655.38 240.56,-1655.38 240.56,-1655.38 662.78,-1655.38 662.78,-1655.38"/>
<polygon fill="#333333" stroke="#333333" stroke-width="2" points="662.78,-1658.88 672.78,-1655.38 662.78,-1651.88 662.78,-1658.88"/>
<text text-anchor="middle" x="397.56" y="-1548.6" font-family="Sans-Serif" font-size="13.00" fill="#2d3436">OpenAI key</text>
</g>
<!-- c3adce3a59cd484392fef0e314fbd790 -->
<g id="node13" class="node">
<title>c3adce3a59cd484392fef0e314fbd790</title>
<image xlink:href="C:\Users\qxo0881\AppData\Local\Programs\Python\Python310\lib\site-packages\resources/aws/devtools\codepipeline.png" width="101px" height="101px" preserveAspectRatio="xMinYMin meet" x="33.0605" y="-1132.5"/>
<text text-anchor="middle" x="83.56" y="-1017.1" font-family="Sans-Serif" font-size="13.00" fill="#2d3436">CodePipeline</text>
</g>
<!-- 763f49d11dd6413da688e2a9d1e8634c -->
<g id="node14" class="node">
<title>763f49d11dd6413da688e2a9d1e8634c</title>
<image xlink:href="C:\Users\qxo0881\AppData\Local\Programs\Python\Python310\lib\site-packages\resources/aws/devtools\codebuild.png" width="101px" height="101px" preserveAspectRatio="xMinYMin meet" x="347.06" y="-1364.5"/>
<text text-anchor="middle" x="397.56" y="-1248.6" font-family="Sans-Serif" font-size="13.00" fill="#2d3436">CodeBuild &gt;=90%</text>
<text text-anchor="middle" x="397.56" y="-1234.6" font-family="Sans-Serif" font-size="13.00" fill="#2d3436">[EPIC: CI/CD]</text>
</g>
<!-- c3adce3a59cd484392fef0e314fbd790&#45;&gt;763f49d11dd6413da688e2a9d1e8634c -->
<g id="edge15" class="edge">
<title>c3adce3a59cd484392fef0e314fbd790&#45;&gt;763f49d11dd6413da688e2a9d1e8634c</title>
<path fill="none" stroke="#333333" stroke-width="2" d="M134.23,-1082C217.12,-1082 372.56,-1082 372.56,-1082 372.56,-1082 372.56,-1220.9 372.56,-1220.9"/>
<polygon fill="#333333" stroke="#333333" stroke-width="2" points="369.06,-1220.9 372.56,-1230.9 376.06,-1220.9 369.06,-1220.9"/>
</g>
<!-- 763f49d11dd6413da688e2a9d1e8634c&#45;&gt;33c26a45ee7d4713bbcf32441579cc9e -->
<g id="edge17" class="edge">
<title>763f49d11dd6413da688e2a9d1e8634c&#45;&gt;33c26a45ee7d4713bbcf32441579cc9e</title>
<path fill="none" stroke="#333333" stroke-width="2" d="M414.56,-1397.42C414.56,-1497.87 414.56,-1653.25 414.56,-1653.25 414.56,-1653.25 662.88,-1653.25 662.88,-1653.25"/>
<polygon fill="#333333" stroke="#333333" stroke-width="2" points="662.88,-1656.75 672.88,-1653.25 662.88,-1649.75 662.88,-1656.75"/>
<text text-anchor="middle" x="560.56" y="-1447.6" font-family="Sans-Serif" font-size="13.00" fill="#2d3436">Deploy Lambda</text>
</g>
<!-- 4d037763fc5f407da2ab8bd2955c8f25 -->
<g id="node15" class="node">
<title>4d037763fc5f407da2ab8bd2955c8f25</title>
<image xlink:href="C:\Users\qxo0881\AppData\Local\Programs\Python\Python310\lib\site-packages\resources/aws/compute\ec2-image-builder.png" width="101px" height="101px" preserveAspectRatio="xMinYMin meet" x="673.06" y="-1364.5"/>
<text text-anchor="middle" x="723.56" y="-1248.6" font-family="Sans-Serif" font-size="13.00" fill="#2d3436">Image Builder</text>
<text text-anchor="middle" x="723.56" y="-1234.6" font-family="Sans-Serif" font-size="13.00" fill="#2d3436">[EPIC: CI/CD]</text>
</g>
<!-- 763f49d11dd6413da688e2a9d1e8634c&#45;&gt;4d037763fc5f407da2ab8bd2955c8f25 -->
<g id="edge16" class="edge">
<title>763f49d11dd6413da688e2a9d1e8634c&#45;&gt;4d037763fc5f407da2ab8bd2955c8f25</title>
<path fill="none" stroke="#333333" stroke-width="2" d="M448.14,-1314C448.14,-1314 662.86,-1314 662.86,-1314"/>
<polygon fill="#333333" stroke="#333333" stroke-width="2" points="662.86,-1317.5 672.86,-1314 662.86,-1310.5 662.86,-1317.5"/>
<text text-anchor="middle" x="560.56" y="-1317.6" font-family="Sans-Serif" font-size="13.00" fill="#2d3436">Build AMI</text>
</g>
<!-- e6d6e6a633e44ab6992b45def06a93cc -->
<g id="node16" class="node">
<title>e6d6e6a633e44ab6992b45def06a93cc</title>
<image xlink:href="C:\Users\qxo0881\AppData\Local\Programs\Python\Python310\lib\site-packages\resources/aws/cost\budgets.png" width="101px" height="101px" preserveAspectRatio="xMinYMin meet" x="33.0605" y="-1566.5"/>
<text text-anchor="middle" x="83.56" y="-1450.6" font-family="Sans-Serif" font-size="13.00" fill="#2d3436">AWS Budgets</text>
<text text-anchor="middle" x="83.56" y="-1436.6" font-family="Sans-Serif" font-size="13.00" fill="#2d3436">€15 warn / €20 stop</text>
</g>
<!-- e6d6e6a633e44ab6992b45def06a93cc&#45;&gt;6d9ba7f41c974b4ab58ad2688ee37833 -->
<g id="edge18" class="edge">
<title>e6d6e6a633e44ab6992b45def06a93cc&#45;&gt;6d9ba7f41c974b4ab58ad2688ee37833</title>
<path fill="none" stroke="#333333" stroke-width="2" stroke-dasharray="1,5" d="M134.11,-1516C219.13,-1516 381.56,-1516 381.56,-1516 381.56,-1516 381.56,-1893.88 381.56,-1893.88"/>
<polygon fill="#333333" stroke="#333333" stroke-width="2" points="378.06,-1893.88 381.56,-1903.88 385.06,-1893.88 378.06,-1893.88"/>
<text text-anchor="middle" x="240.56" y="-1705.6" font-family="Sans-Serif" font-size="13.00" fill="#2d3436">Alarm &#45;&gt; desktop</text>
</g>
<!-- 8d921abed12a4671bcd7f3f6ed60e273&#45;&gt;2fcdaf9da11043beba991cb893972d17 -->
<g id="edge21" class="edge">
<title>8d921abed12a4671bcd7f3f6ed60e273&#45;&gt;2fcdaf9da11043beba991cb893972d17</title>
<path fill="none" stroke="#333333" stroke-width="2" d="M774.18,-738C774.18,-738 938.79,-738 938.79,-738"/>
<polygon fill="#333333" stroke="#333333" stroke-width="2" points="938.79,-741.5 948.79,-738 938.79,-734.5 938.79,-741.5"/>
</g>
<!-- 618d40322d754f79a298ffee7808b3e3 -->
<g id="node19" class="node">
<title>618d40322d754f79a298ffee7808b3e3</title>
<path fill="none" stroke="black" d="M762.06,-596.5C762.06,-596.5 685.06,-596.5 685.06,-596.5 679.06,-596.5 673.06,-590.5 673.06,-584.5 673.06,-584.5 673.06,-507.5 673.06,-507.5 673.06,-501.5 679.06,-495.5 685.06,-495.5 685.06,-495.5 762.06,-495.5 762.06,-495.5 768.06,-495.5 774.06,-501.5 774.06,-507.5 774.06,-507.5 774.06,-584.5 774.06,-584.5 774.06,-590.5 768.06,-596.5 762.06,-596.5"/>
<text text-anchor="middle" x="723.56" y="-513.1" font-family="Sans-Serif" font-size="13.00" fill="#2d3436">AWS Config rules</text>
<text text-anchor="middle" x="723.56" y="-499.1" font-family="Sans-Serif" font-size="13.00" fill="#2d3436">[EPIC: CostOps]</text>
</g>
<!-- 618d40322d754f79a298ffee7808b3e3&#45;&gt;2fcdaf9da11043beba991cb893972d17 -->
<g id="edge19" class="edge">
<title>618d40322d754f79a298ffee7808b3e3&#45;&gt;2fcdaf9da11043beba991cb893972d17</title>
<path fill="none" stroke="#333333" stroke-width="2" stroke-dasharray="1,5" d="M723.56,-596.7C723.56,-622.3 723.56,-648 723.56,-648 723.56,-648 938.94,-648 938.94,-648"/>
<polygon fill="#333333" stroke="#333333" stroke-width="2" points="938.94,-651.5 948.94,-648 938.94,-644.5 938.94,-651.5"/>
<text text-anchor="middle" x="861.56" y="-549.6" font-family="Sans-Serif" font-size="13.00" fill="#2d3436">Compliance</text>
</g>
<!-- 2ef28338a6d944ae9da6e6a681c3aa35 -->
<g id="node20" class="node">
<title>2ef28338a6d944ae9da6e6a681c3aa35</title>
<image xlink:href="C:\Users\qxo0881\AppData\Local\Programs\Python\Python310\lib\site-packages\resources/generic/blank\blank.png" width="101px" height="101px" preserveAspectRatio="xMinYMin meet" x="33.0605" y="-1819.5"/>
<text text-anchor="middle" x="83.56" y="-1703.1" font-family="Sans-Serif" font-size="13.00" fill="#2d3436">Legend:</text>
<text text-anchor="middle" x="83.56" y="-1689.1" font-family="Sans-Serif" font-size="13.00" fill="#2d3436">solid=data</text>
<text text-anchor="middle" x="83.56" y="-1675.1" font-family="Sans-Serif" font-size="13.00" fill="#2d3436">&#45;dashed green=response</text>
<text text-anchor="middle" x="83.56" y="-1661.1" font-family="Sans-Serif" font-size="13.00" fill="#2d3436">...dotted=ops/security</text>
</g>
</g>
</svg>
