<?xml version="1.0" encoding="UTF-8" standalone="no"?>
<!DOCTYPE svg PUBLIC "-//W3C//DTD SVG 1.1//EN"
 "http://www.w3.org/Graphics/SVG/1.1/DTD/svg11.dtd">
<!-- Generated by graphviz version 2.41.20190407.0914 (20190407.0914)
 -->
<!-- Title: tinyllama_architecture_final Pages: 1 -->
<svg width="1176pt" height="2252pt"
 viewBox="0.00 0.00 1176.00 2251.50" xmlns="http://www.w3.org/2000/svg" xmlns:xlink="http://www.w3.org/1999/xlink">
<g id="graph0" class="graph" transform="scale(1 1) rotate(0) translate(144 2107.5)">
<title>tinyllama_architecture_final</title>
<polygon fill="white" stroke="transparent" points="-144,144 -144,-2107.5 1032,-2107.5 1032,144 -144,144"/>
<text text-anchor="middle" x="444" y="-10" font-family="Sans-Serif" font-size="20.00" fill="#2d3436">tinyllama_architecture_final</text>
<g id="clust1" class="cluster">
<title>cluster_Edge / API</title>
<path fill="#e5f5fd" stroke="#aeb6be" stroke-width="2" d="M550,-833.5C550,-833.5 868,-833.5 868,-833.5 874,-833.5 880,-839.5 880,-845.5 880,-845.5 880,-1205.5 880,-1205.5 880,-1211.5 874,-1217.5 868,-1217.5 868,-1217.5 550,-1217.5 550,-1217.5 544,-1217.5 538,-1211.5 538,-1205.5 538,-1205.5 538,-845.5 538,-845.5 538,-839.5 544,-833.5 550,-833.5"/>
<text text-anchor="middle" x="575" y="-1203.9" font-family="Sans-Serif" font-size="12.00" fill="#2d3436">Edge / API</text>
</g>
<g id="clust3" class="cluster">
<title>cluster_Inference &amp; Training</title>
<path fill="#e5f5fd" stroke="#aeb6be" stroke-width="2" d="M20,-201.5C20,-201.5 396,-201.5 396,-201.5 402,-201.5 408,-207.5 408,-213.5 408,-213.5 408,-601.5 408,-601.5 408,-607.5 402,-613.5 396,-613.5 396,-613.5 20,-613.5 20,-613.5 14,-613.5 8,-607.5 8,-601.5 8,-601.5 8,-213.5 8,-213.5 8,-207.5 14,-201.5 20,-201.5"/>
<text text-anchor="middle" x="71" y="-599.9" font-family="Sans-Serif" font-size="12.00" fill="#2d3436">Inference &amp; Training</text>
</g>
<g id="clust2" class="cluster">
<title>cluster_CI / Image Pipeline</title>
<path fill="#e5f5fd" stroke="#aeb6be" stroke-width="2" d="M303,-1225.5C303,-1225.5 868,-1225.5 868,-1225.5 874,-1225.5 880,-1231.5 880,-1237.5 880,-1237.5 880,-1777.5 880,-1777.5 880,-1783.5 874,-1789.5 868,-1789.5 868,-1789.5 303,-1789.5 303,-1789.5 297,-1789.5 291,-1783.5 291,-1777.5 291,-1777.5 291,-1237.5 291,-1237.5 291,-1231.5 297,-1225.5 303,-1225.5"/>
<text text-anchor="middle" x="350.5" y="-1775.9" font-family="Sans-Serif" font-size="12.00" fill="#2d3436">CI / Image Pipeline</text>
</g>
<!-- 9279f01c103b486b9acd242d6f097a63 -->
<g id="node1" class="node">
<title>9279f01c103b486b9acd242d6f097a63</title>
<image xlink:href="C:\Users\qxo0881\AppData\Local\Programs\Python\Python310\lib\site-packages\resources/generic/blank\blank.png" width="101px" height="101px" preserveAspectRatio="xMinYMin meet" x="546" y="-1931"/>
<text text-anchor="middle" x="596.5" y="-1815.1" font-family="Sans-Serif" font-size="13.00" fill="#2d3436">Desktop Client</text>
<text text-anchor="middle" x="596.5" y="-1801.1" font-family="Sans-Serif" font-size="13.00" fill="#2d3436">(HTTP + JWT)</text>
</g>
<!-- df019f2ae82d434db9c690ac88d348a9 -->
<g id="node2" class="node">
<title>df019f2ae82d434db9c690ac88d348a9</title>
<image xlink:href="C:\Users\qxo0881\AppData\Local\Programs\Python\Python310\lib\site-packages\resources/aws/network\cloudfront.png" width="101px" height="101px" preserveAspectRatio="xMinYMin meet" x="546" y="-1170"/>
<text text-anchor="middle" x="596.5" y="-1054.6" font-family="Sans-Serif" font-size="13.00" fill="#2d3436">CloudFront (optional)</text>
</g>
<!-- 9279f01c103b486b9acd242d6f097a63&#45;&gt;df019f2ae82d434db9c690ac88d348a9 -->
<g id="edge1" class="edge">
<title>9279f01c103b486b9acd242d6f097a63&#45;&gt;df019f2ae82d434db9c690ac88d348a9</title>
<path fill="none" stroke="#333333" stroke-width="2" d="M545.91,-1803.8C511.81,-1803.8 473,-1803.8 473,-1803.8 473,-1803.8 473,-1142.33 473,-1142.33 473,-1142.33 535.91,-1142.33 535.91,-1142.33"/>
<polygon fill="#333333" stroke="#333333" stroke-width="2" points="535.91,-1145.83 545.91,-1142.33 535.91,-1138.83 535.91,-1145.83"/>
<text text-anchor="middle" x="473" y="-1374.1" font-family="Sans-Serif" font-size="13.00" fill="#2d3436">HTTPS</text>
</g>
<!-- 7b5625e7fcd94774b8b6f88adb24f98e -->
<g id="node4" class="node">
<title>7b5625e7fcd94774b8b6f88adb24f98e</title>
<image xlink:href="C:\Users\qxo0881\AppData\Local\Programs\Python\Python310\lib\site-packages\resources/aws/security\cognito.png" width="101px" height="101px" preserveAspectRatio="xMinYMin meet" x="546" y="-975"/>
<text text-anchor="middle" x="596.5" y="-859.1" font-family="Sans-Serif" font-size="13.00" fill="#2d3436">Cognito</text>
<text text-anchor="middle" x="596.5" y="-845.1" font-family="Sans-Serif" font-size="13.00" fill="#2d3436">JWT Auth</text>
</g>
<!-- 9279f01c103b486b9acd242d6f097a63&#45;&gt;7b5625e7fcd94774b8b6f88adb24f98e -->
<g id="edge3" class="edge">
<title>9279f01c103b486b9acd242d6f097a63&#45;&gt;7b5625e7fcd94774b8b6f88adb24f98e</title>
<path fill="none" stroke="#333333" stroke-width="2" stroke-dasharray="1,5" d="M545.59,-1805.9C498.92,-1805.9 437,-1805.9 437,-1805.9 437,-1805.9 437,-929.25 437,-929.25 437,-929.25 535.59,-929.25 535.59,-929.25"/>
<polygon fill="#333333" stroke="#333333" stroke-width="2" points="535.59,-932.75 545.59,-929.25 535.59,-925.75 535.59,-932.75"/>
<text text-anchor="middle" x="473" y="-1422.1" font-family="Sans-Serif" font-size="13.00" fill="#2d3436">Auth flow</text>
</g>
<!-- df019f2ae82d434db9c690ac88d348a9&#45;&gt;9279f01c103b486b9acd242d6f097a63 -->
<g id="edge18" class="edge">
<title>df019f2ae82d434db9c690ac88d348a9&#45;&gt;9279f01c103b486b9acd242d6f097a63</title>
<path fill="none" stroke="green" stroke-width="2" stroke-dasharray="5,2" d="M545.93,-1096.67C527,-1096.67 510,-1096.67 510,-1096.67 510,-1096.67 510,-1799.6 510,-1799.6 510,-1799.6 535.93,-1799.6 535.93,-1799.6"/>
<polygon fill="green" stroke="green" stroke-width="2" points="535.93,-1803.1 545.93,-1799.6 535.93,-1796.1 535.93,-1803.1"/>
<text text-anchor="middle" x="473" y="-1455.1" font-family="Sans-Serif" font-size="13.00" fill="#2d3436">Response</text>
</g>
<!-- 2b82f74deeec43dd87b5799514f27df4 -->
<g id="node3" class="node">
<title>2b82f74deeec43dd87b5799514f27df4</title>
<image xlink:href="C:\Users\qxo0881\AppData\Local\Programs\Python\Python310\lib\site-packages\resources/aws/network\api-gateway.png" width="101px" height="101px" preserveAspectRatio="xMinYMin meet" x="771" y="-975"/>
<text text-anchor="middle" x="821.5" y="-859.1" font-family="Sans-Serif" font-size="13.00" fill="#2d3436">API Gateway</text>
<text text-anchor="middle" x="821.5" y="-845.1" font-family="Sans-Serif" font-size="13.00" fill="#2d3436">HTTP API</text>
</g>
<!-- df019f2ae82d434db9c690ac88d348a9&#45;&gt;2b82f74deeec43dd87b5799514f27df4 -->
<g id="edge2" class="edge">
<title>df019f2ae82d434db9c690ac88d348a9&#45;&gt;2b82f74deeec43dd87b5799514f27df4</title>
<path fill="none" stroke="#333333" stroke-width="2" d="M647.04,-1142.33C718.11,-1142.33 839,-1142.33 839,-1142.33 839,-1142.33 839,-1017.79 839,-1017.79"/>
<polygon fill="#333333" stroke="#333333" stroke-width="2" points="842.5,-1017.79 839,-1007.79 835.5,-1017.79 842.5,-1017.79"/>
</g>
<!-- 2b82f74deeec43dd87b5799514f27df4&#45;&gt;df019f2ae82d434db9c690ac88d348a9 -->
<g id="edge17" class="edge">
<title>2b82f74deeec43dd87b5799514f27df4&#45;&gt;df019f2ae82d434db9c690ac88d348a9</title>
<path fill="none" stroke="green" stroke-width="2" stroke-dasharray="5,2" d="M805,-1007.56C805,-1051.58 805,-1096.67 805,-1096.67 805,-1096.67 657.24,-1096.67 657.24,-1096.67"/>
<polygon fill="green" stroke="green" stroke-width="2" points="657.24,-1093.17 647.24,-1096.67 657.24,-1100.17 657.24,-1093.17"/>
<text text-anchor="middle" x="709" y="-1091.1" font-family="Sans-Serif" font-size="13.00" fill="#2d3436">Response</text>
</g>
<!-- 8a521a53748b4436a4775dc19ea0f82d -->
<g id="node5" class="node">
<title>8a521a53748b4436a4775dc19ea0f82d</title>
<image xlink:href="C:\Users\qxo0881\AppData\Local\Programs\Python\Python310\lib\site-packages\resources/aws/compute\lambda.png" width="101px" height="101px" preserveAspectRatio="xMinYMin meet" x="546" y="-766"/>
<text text-anchor="middle" x="596.5" y="-650.1" font-family="Sans-Serif" font-size="13.00" fill="#2d3436">Lambda Router v2</text>
<text text-anchor="middle" x="596.5" y="-636.1" font-family="Sans-Serif" font-size="13.00" fill="#2d3436">(modular providers)</text>
</g>
<!-- 2b82f74deeec43dd87b5799514f27df4&#45;&gt;8a521a53748b4436a4775dc19ea0f82d -->
<g id="edge5" class="edge">
<title>2b82f74deeec43dd87b5799514f27df4&#45;&gt;8a521a53748b4436a4775dc19ea0f82d</title>
<path fill="none" stroke="#333333" stroke-width="2" d="M839,-841.12C839,-803.71 839,-767.83 839,-767.83 839,-767.83 657.04,-767.83 657.04,-767.83"/>
<polygon fill="#333333" stroke="#333333" stroke-width="2" points="657.04,-764.33 647.04,-767.83 657.04,-771.33 657.04,-764.33"/>
</g>
<!-- 7b5625e7fcd94774b8b6f88adb24f98e&#45;&gt;2b82f74deeec43dd87b5799514f27df4 -->
<g id="edge4" class="edge">
<title>7b5625e7fcd94774b8b6f88adb24f98e&#45;&gt;2b82f74deeec43dd87b5799514f27df4</title>
<path fill="none" stroke="#333333" stroke-width="2" stroke-dasharray="1,5" d="M647.27,-924.5C647.27,-924.5 760.91,-924.5 760.91,-924.5"/>
<polygon fill="#333333" stroke="#333333" stroke-width="2" points="760.91,-928 770.91,-924.5 760.91,-921 760.91,-928"/>
<text text-anchor="middle" x="709" y="-928.1" font-family="Sans-Serif" font-size="13.00" fill="#2d3436">Authorizer</text>
</g>
<!-- 8a521a53748b4436a4775dc19ea0f82d&#45;&gt;2b82f74deeec43dd87b5799514f27df4 -->
<g id="edge16" class="edge">
<title>8a521a53748b4436a4775dc19ea0f82d&#45;&gt;2b82f74deeec43dd87b5799514f27df4</title>
<path fill="none" stroke="green" stroke-width="2" stroke-dasharray="5,2" d="M647.24,-783.17C708.95,-783.17 805,-783.17 805,-783.17 805,-783.17 805,-831.47 805,-831.47"/>
<polygon fill="green" stroke="green" stroke-width="2" points="801.5,-831.47 805,-841.47 808.5,-831.47 801.5,-831.47"/>
<text text-anchor="middle" x="709" y="-795.1" font-family="Sans-Serif" font-size="13.00" fill="#2d3436">Response</text>
</g>
<!-- 6ff9d6d801e046fc82023113166133ab -->
<g id="node6" class="node">
<title>6ff9d6d801e046fc82023113166133ab</title>
<image xlink:href="C:\Users\qxo0881\AppData\Local\Programs\Python\Python310\lib\site-packages\resources/aws/database\elasticache.png" width="101px" height="101px" preserveAspectRatio="xMinYMin meet" x="771" y="-720"/>
<text text-anchor="middle" x="821.5" y="-604.1" font-family="Sans-Serif" font-size="13.00" fill="#2d3436">ElastiCache Redis</text>
<text text-anchor="middle" x="821.5" y="-590.1" font-family="Sans-Serif" font-size="13.00" fill="#2d3436">TTL 5 min</text>
</g>
<!-- 8a521a53748b4436a4775dc19ea0f82d&#45;&gt;6ff9d6d801e046fc82023113166133ab -->
<g id="edge6" class="edge">
<title>8a521a53748b4436a4775dc19ea0f82d&#45;&gt;6ff9d6d801e046fc82023113166133ab</title>
<path fill="none" stroke="#333333" stroke-width="2" d="M647.27,-692.5C647.27,-692.5 760.91,-692.5 760.91,-692.5"/>
<polygon fill="#333333" stroke="#333333" stroke-width="2" points="760.91,-696 770.91,-692.5 760.91,-689 760.91,-696"/>
<text text-anchor="middle" x="709" y="-711.1" font-family="Sans-Serif" font-size="13.00" fill="#2d3436">Enqueue job</text>
</g>
<!-- acfb1c8733df47eea78982f21749a4d3 -->
<g id="node17" class="node">
<title>acfb1c8733df47eea78982f21749a4d3</title>
<image xlink:href="C:\Users\qxo0881\AppData\Local\Programs\Python\Python310\lib\site-packages\resources/aws/management\cloudwatch.png" width="101px" height="101px" preserveAspectRatio="xMinYMin meet" x="771" y="-509"/>
<text text-anchor="middle" x="821.5" y="-393.1" font-family="Sans-Serif" font-size="13.00" fill="#2d3436">CloudWatch</text>
<text text-anchor="middle" x="821.5" y="-379.1" font-family="Sans-Serif" font-size="13.00" fill="#2d3436">logs + metrics</text>
</g>
<!-- 8a521a53748b4436a4775dc19ea0f82d&#45;&gt;acfb1c8733df47eea78982f21749a4d3 -->
<g id="edge22" class="edge">
<title>8a521a53748b4436a4775dc19ea0f82d&#45;&gt;acfb1c8733df47eea78982f21749a4d3</title>
<path fill="none" stroke="#333333" stroke-width="2" d="M614,-632.3C614,-584.65 614,-534.25 614,-534.25 614,-534.25 760.74,-534.25 760.74,-534.25"/>
<polygon fill="#333333" stroke="#333333" stroke-width="2" points="760.74,-537.75 770.74,-534.25 760.74,-530.75 760.74,-537.75"/>
</g>
<!-- f20d1998cf7d4d9ca67eb19c367db7bf -->
<g id="node12" class="node">
<title>f20d1998cf7d4d9ca67eb19c367db7bf</title>
<image xlink:href="C:\Users\qxo0881\AppData\Local\Programs\Python\Python310\lib\site-packages\resources/aws/compute\ec2.png" width="101px" height="101px" preserveAspectRatio="xMinYMin meet" x="16" y="-343"/>
<text text-anchor="middle" x="66.5" y="-227.1" font-family="Sans-Serif" font-size="13.00" fill="#2d3436">X1 Hibernated EC2</text>
<text text-anchor="middle" x="66.5" y="-213.1" font-family="Sans-Serif" font-size="13.00" fill="#2d3436">g4dn/g5</text>
</g>
<!-- 6ff9d6d801e046fc82023113166133ab&#45;&gt;f20d1998cf7d4d9ca67eb19c367db7bf -->
<g id="edge11" class="edge">
<title>6ff9d6d801e046fc82023113166133ab&#45;&gt;f20d1998cf7d4d9ca67eb19c367db7bf</title>
<path fill="none" stroke="#333333" stroke-width="2" d="M770.89,-607.25C631.8,-607.25 254,-607.25 254,-607.25 254,-607.25 254,-356.5 254,-356.5 254,-356.5 127.24,-356.5 127.24,-356.5"/>
<polygon fill="#333333" stroke="#333333" stroke-width="2" points="127.24,-353 117.24,-356.5 127.24,-360 127.24,-353"/>
<text text-anchor="middle" x="473" y="-576.1" font-family="Sans-Serif" font-size="13.00" fill="#2d3436">Dequeue / wake</text>
</g>
<!-- 56d1b9c4858d48d5b1874f5fc57cd469 -->
<g id="node7" class="node">
<title>56d1b9c4858d48d5b1874f5fc57cd469</title>
<image xlink:href="C:\Users\qxo0881\AppData\Local\Programs\Python\Python310\lib\site-packages\resources/aws/security\secrets-manager.png" width="101px" height="101px" preserveAspectRatio="xMinYMin meet" x="299" y="-1353"/>
<text text-anchor="middle" x="349.5" y="-1237.6" font-family="Sans-Serif" font-size="13.00" fill="#2d3436">Secrets Manager</text>
</g>
<!-- 56d1b9c4858d48d5b1874f5fc57cd469&#45;&gt;8a521a53748b4436a4775dc19ea0f82d -->
<g id="edge7" class="edge">
<title>56d1b9c4858d48d5b1874f5fc57cd469&#45;&gt;8a521a53748b4436a4775dc19ea0f82d</title>
<path fill="none" stroke="#333333" stroke-width="2" d="M350,-1233.73C350,-1078.72 350,-715.5 350,-715.5 350,-715.5 535.72,-715.5 535.72,-715.5"/>
<polygon fill="#333333" stroke="#333333" stroke-width="2" points="535.72,-719 545.72,-715.5 535.72,-712 535.72,-719"/>
</g>
<!-- 01ffd4519b1f480282d297cd0804e009 -->
<g id="node9" class="node">
<title>01ffd4519b1f480282d297cd0804e009</title>
<image xlink:href="C:\Users\qxo0881\AppData\Local\Programs\Python\Python310\lib\site-packages\resources/aws/devtools\codebuild.png" width="101px" height="101px" preserveAspectRatio="xMinYMin meet" x="546" y="-1446"/>
<text text-anchor="middle" x="596.5" y="-1330.1" font-family="Sans-Serif" font-size="13.00" fill="#2d3436">CodeBuild</text>
<text text-anchor="middle" x="596.5" y="-1316.1" font-family="Sans-Serif" font-size="13.00" fill="#2d3436">unit tests ≥90 %</text>
</g>
<!-- 56d1b9c4858d48d5b1874f5fc57cd469&#45;&gt;01ffd4519b1f480282d297cd0804e009 -->
<g id="edge8" class="edge">
<title>56d1b9c4858d48d5b1874f5fc57cd469&#45;&gt;01ffd4519b1f480282d297cd0804e009</title>
<path fill="none" stroke="#333333" stroke-width="2" d="M400.08,-1341.75C400.08,-1341.75 535.99,-1341.75 535.99,-1341.75"/>
<polygon fill="#333333" stroke="#333333" stroke-width="2" points="535.99,-1345.25 545.99,-1341.75 535.99,-1338.25 535.99,-1345.25"/>
</g>
<!-- 16f10fefa02e422383ac3a56d21d76cf -->
<g id="node8" class="node">
<title>16f10fefa02e422383ac3a56d21d76cf</title>
<image xlink:href="C:\Users\qxo0881\AppData\Local\Programs\Python\Python310\lib\site-packages\resources/aws/devtools\codepipeline.png" width="101px" height="101px" preserveAspectRatio="xMinYMin meet" x="299" y="-1533"/>
<text text-anchor="middle" x="349.5" y="-1417.6" font-family="Sans-Serif" font-size="13.00" fill="#2d3436">CodePipeline</text>
</g>
<!-- 16f10fefa02e422383ac3a56d21d76cf&#45;&gt;01ffd4519b1f480282d297cd0804e009 -->
<g id="edge9" class="edge">
<title>16f10fefa02e422383ac3a56d21d76cf&#45;&gt;01ffd4519b1f480282d297cd0804e009</title>
<path fill="none" stroke="#333333" stroke-width="2" d="M400.08,-1446.25C400.08,-1446.25 535.99,-1446.25 535.99,-1446.25"/>
<polygon fill="#333333" stroke="#333333" stroke-width="2" points="535.99,-1449.75 545.99,-1446.25 535.99,-1442.75 535.99,-1449.75"/>
</g>
<!-- 5c115c46aff54a2280465a987e18de17 -->
<g id="node10" class="node">
<title>5c115c46aff54a2280465a987e18de17</title>
<image xlink:href="C:\Users\qxo0881\AppData\Local\Programs\Python\Python310\lib\site-packages\resources/aws/compute\ec2-image-builder.png" width="101px" height="101px" preserveAspectRatio="xMinYMin meet" x="771" y="-1446"/>
<text text-anchor="middle" x="821.5" y="-1330.1" font-family="Sans-Serif" font-size="13.00" fill="#2d3436">EC2 Image Builder</text>
<text text-anchor="middle" x="821.5" y="-1316.1" font-family="Sans-Serif" font-size="13.00" fill="#2d3436">AMI bake</text>
</g>
<!-- 01ffd4519b1f480282d297cd0804e009&#45;&gt;5c115c46aff54a2280465a987e18de17 -->
<g id="edge10" class="edge">
<title>01ffd4519b1f480282d297cd0804e009&#45;&gt;5c115c46aff54a2280465a987e18de17</title>
<path fill="none" stroke="#333333" stroke-width="2" d="M647.27,-1395.5C647.27,-1395.5 760.91,-1395.5 760.91,-1395.5"/>
<polygon fill="#333333" stroke="#333333" stroke-width="2" points="760.91,-1399 770.91,-1395.5 760.91,-1392 760.91,-1399"/>
<text text-anchor="middle" x="709" y="-1399.1" font-family="Sans-Serif" font-size="13.00" fill="#2d3436">Build AMI</text>
</g>
<!-- 4c8b82d3b4e949bab4672f4e988d6325 -->
<g id="node11" class="node">
<title>4c8b82d3b4e949bab4672f4e988d6325</title>
<image xlink:href="C:\Users\qxo0881\AppData\Local\Programs\Python\Python310\lib\site-packages\resources/aws/cost\budgets.png" width="101px" height="101px" preserveAspectRatio="xMinYMin meet" x="299" y="-1728"/>
<text text-anchor="middle" x="349.5" y="-1612.1" font-family="Sans-Serif" font-size="13.00" fill="#2d3436">AWS Budgets</text>
<text text-anchor="middle" x="349.5" y="-1598.1" font-family="Sans-Serif" font-size="13.00" fill="#2d3436">€15 warn / €20 stop</text>
</g>
<!-- 4c8b82d3b4e949bab4672f4e988d6325&#45;&gt;9279f01c103b486b9acd242d6f097a63 -->
<g id="edge19" class="edge">
<title>4c8b82d3b4e949bab4672f4e988d6325&#45;&gt;9279f01c103b486b9acd242d6f097a63</title>
<path fill="none" stroke="#333333" stroke-width="2" stroke-dasharray="1,5" d="M350,-1760.69C350,-1783.31 350,-1801.7 350,-1801.7 350,-1801.7 535.72,-1801.7 535.72,-1801.7"/>
<polygon fill="#333333" stroke="#333333" stroke-width="2" points="535.72,-1805.2 545.72,-1801.7 535.72,-1798.2 535.72,-1805.2"/>
<text text-anchor="middle" x="473" y="-1760.1" font-family="Sans-Serif" font-size="13.00" fill="#2d3436">Alerts</text>
</g>
<!-- f20d1998cf7d4d9ca67eb19c367db7bf&#45;&gt;8a521a53748b4436a4775dc19ea0f82d -->
<g id="edge13" class="edge">
<title>f20d1998cf7d4d9ca67eb19c367db7bf&#45;&gt;8a521a53748b4436a4775dc19ea0f82d</title>
<path fill="none" stroke="green" stroke-width="2" stroke-dasharray="5,2" d="M117.14,-366C246.69,-366 580,-366 580,-366 580,-366 580,-622.23 580,-622.23"/>
<polygon fill="green" stroke="green" stroke-width="2" points="576.5,-622.23 580,-632.23 583.5,-622.23 576.5,-622.23"/>
<text text-anchor="middle" x="349.5" y="-714.1" font-family="Sans-Serif" font-size="13.00" fill="#2d3436">Response</text>
</g>
<!-- 23e6bece89724d5fb6459b2d5568a5de -->
<g id="node13" class="node">
<title>23e6bece89724d5fb6459b2d5568a5de</title>
<image xlink:href="C:\Users\qxo0881\AppData\Local\Programs\Python\Python310\lib\site-packages\resources/aws/storage\elastic-block-store-ebs.png" width="101px" height="101px" preserveAspectRatio="xMinYMin meet" x="299" y="-329"/>
<text text-anchor="middle" x="349.5" y="-213.6" font-family="Sans-Serif" font-size="13.00" fill="#2d3436">100 GB gp3 cache</text>
</g>
<!-- f20d1998cf7d4d9ca67eb19c367db7bf&#45;&gt;23e6bece89724d5fb6459b2d5568a5de -->
<g id="edge12" class="edge">
<title>f20d1998cf7d4d9ca67eb19c367db7bf&#45;&gt;23e6bece89724d5fb6459b2d5568a5de</title>
<path fill="none" stroke="#333333" stroke-width="2" stroke-dasharray="1,5" d="M117.09,-278.5C117.09,-278.5 288.87,-278.5 288.87,-278.5"/>
<polygon fill="#333333" stroke="#333333" stroke-width="2" points="288.87,-282 298.87,-278.5 288.87,-275 288.87,-282"/>
<text text-anchor="middle" x="208" y="-289.1" font-family="Sans-Serif" font-size="13.00" fill="#2d3436">RAM→EBS (hibernate)</text>
</g>
<!-- 78efa3acf268428999fdfaaf19176abf -->
<g id="node16" class="node">
<title>78efa3acf268428999fdfaaf19176abf</title>
<image xlink:href="C:\Users\qxo0881\AppData\Local\Programs\Python\Python310\lib\site-packages\resources/aws/management\systems-manager.png" width="101px" height="101px" preserveAspectRatio="xMinYMin meet" x="299" y="-149"/>
<text text-anchor="middle" x="349.5" y="-33.6" font-family="Sans-Serif" font-size="13.00" fill="#2d3436">SSM RunCommand</text>
</g>
<!-- f20d1998cf7d4d9ca67eb19c367db7bf&#45;&gt;78efa3acf268428999fdfaaf19176abf -->
<g id="edge20" class="edge">
<title>f20d1998cf7d4d9ca67eb19c367db7bf&#45;&gt;78efa3acf268428999fdfaaf19176abf</title>
<path fill="none" stroke="#333333" stroke-width="2" d="M67,-209.38C67,-156.73 67,-98.5 67,-98.5 67,-98.5 288.99,-98.5 288.99,-98.5"/>
<polygon fill="#333333" stroke="#333333" stroke-width="2" points="288.99,-102 298.99,-98.5 288.99,-95 288.99,-102"/>
</g>
<!-- 97236e29d2f1483cbcbaee295d81ced1 -->
<g id="node14" class="node">
<title>97236e29d2f1483cbcbaee295d81ced1</title>
<image xlink:href="C:\Users\qxo0881\AppData\Local\Programs\Python\Python310\lib\site-packages\resources/aws/compute\ec2.png" width="101px" height="101px" preserveAspectRatio="xMinYMin meet" x="16" y="-552"/>
<text text-anchor="middle" x="66.5" y="-436.1" font-family="Sans-Serif" font-size="13.00" fill="#2d3436">Y1 Trainer EC2</text>
<text text-anchor="middle" x="66.5" y="-422.1" font-family="Sans-Serif" font-size="13.00" fill="#2d3436">p4d (ephemeral)</text>
</g>
<!-- 97236e29d2f1483cbcbaee295d81ced1&#45;&gt;16f10fefa02e422383ac3a56d21d76cf -->
<g id="edge15" class="edge">
<title>97236e29d2f1483cbcbaee295d81ced1&#45;&gt;16f10fefa02e422383ac3a56d21d76cf</title>
<path fill="none" stroke="#333333" stroke-width="2" d="M117.19,-555.83C157.79,-555.83 208,-555.83 208,-555.83 208,-555.83 208,-1482.5 208,-1482.5 208,-1482.5 288.81,-1482.5 288.81,-1482.5"/>
<polygon fill="#333333" stroke="#333333" stroke-width="2" points="288.81,-1486 298.81,-1482.5 288.81,-1479 288.81,-1486"/>
<text text-anchor="middle" x="208" y="-1132.1" font-family="Sans-Serif" font-size="13.00" fill="#2d3436">Notify rebuild</text>
</g>
<!-- 8c39333eb1064f64aee684cf6a3dc6c0 -->
<g id="node15" class="node">
<title>8c39333eb1064f64aee684cf6a3dc6c0</title>
<image xlink:href="C:\Users\qxo0881\AppData\Local\Programs\Python\Python310\lib\site-packages\resources/aws/storage\simple-storage-service-s3.png" width="101px" height="101px" preserveAspectRatio="xMinYMin meet" x="299" y="-509"/>
<text text-anchor="middle" x="349.5" y="-393.6" font-family="Sans-Serif" font-size="13.00" fill="#2d3436">S3 tinyllama&#45;models</text>
</g>
<!-- 97236e29d2f1483cbcbaee295d81ced1&#45;&gt;8c39333eb1064f64aee684cf6a3dc6c0 -->
<g id="edge14" class="edge">
<title>97236e29d2f1483cbcbaee295d81ced1&#45;&gt;8c39333eb1064f64aee684cf6a3dc6c0</title>
<path fill="none" stroke="#333333" stroke-width="2" d="M117.09,-472.75C117.09,-472.75 288.87,-472.75 288.87,-472.75"/>
<polygon fill="#333333" stroke="#333333" stroke-width="2" points="288.87,-476.25 298.87,-472.75 288.87,-469.25 288.87,-476.25"/>
<text text-anchor="middle" x="208" y="-484.1" font-family="Sans-Serif" font-size="13.00" fill="#2d3436">Upload new LoRA</text>
</g>
<!-- 50238805b3ca4686ab5ab82651efaedb -->
<g id="node18" class="node">
<title>50238805b3ca4686ab5ab82651efaedb</title>
<image xlink:href="C:\Users\qxo0881\AppData\Local\Programs\Python\Python310\lib\site-packages\resources/generic/blank\blank.png" width="101px" height="101px" preserveAspectRatio="xMinYMin meet" x="299" y="-1927"/>
<text text-anchor="middle" x="349.5" y="-1811.6" font-family="Sans-Serif" font-size="13.00" fill="#2d3436">SNS training&#45;complete</text>
</g>
<!-- 97236e29d2f1483cbcbaee295d81ced1&#45;&gt;50238805b3ca4686ab5ab82651efaedb -->
<g id="edge24" class="edge">
<title>97236e29d2f1483cbcbaee295d81ced1&#45;&gt;50238805b3ca4686ab5ab82651efaedb</title>
<path fill="none" stroke="#333333" stroke-width="2" d="M117.01,-570.17C140.36,-570.17 163,-570.17 163,-570.17 163,-570.17 163,-1876.5 163,-1876.5 163,-1876.5 288.54,-1876.5 288.54,-1876.5"/>
<polygon fill="#333333" stroke="#333333" stroke-width="2" points="288.54,-1880 298.54,-1876.5 288.54,-1873 288.54,-1880"/>
</g>
<!-- 8c39333eb1064f64aee684cf6a3dc6c0&#45;&gt;acfb1c8733df47eea78982f21749a4d3 -->
<g id="edge23" class="edge">
<title>8c39333eb1064f64aee684cf6a3dc6c0&#45;&gt;acfb1c8733df47eea78982f21749a4d3</title>
<path fill="none" stroke="#333333" stroke-width="2" d="M400.01,-458.5C400.01,-458.5 760.99,-458.5 760.99,-458.5"/>
<polygon fill="#333333" stroke="#333333" stroke-width="2" points="760.99,-462 770.99,-458.5 760.99,-455 760.99,-462"/>
</g>
<!-- 78efa3acf268428999fdfaaf19176abf&#45;&gt;acfb1c8733df47eea78982f21749a4d3 -->
<g id="edge21" class="edge">
<title>78efa3acf268428999fdfaaf19176abf&#45;&gt;acfb1c8733df47eea78982f21749a4d3</title>
<path fill="none" stroke="#333333" stroke-width="2" d="M400.07,-98.5C521.96,-98.5 822,-98.5 822,-98.5 822,-98.5 822,-365.46 822,-365.46"/>
<polygon fill="#333333" stroke="#333333" stroke-width="2" points="818.5,-365.46 822,-375.46 825.5,-365.46 818.5,-365.46"/>
</g>
<!-- 50238805b3ca4686ab5ab82651efaedb&#45;&gt;9279f01c103b486b9acd242d6f097a63 -->
<g id="edge25" class="edge">
<title>50238805b3ca4686ab5ab82651efaedb&#45;&gt;9279f01c103b486b9acd242d6f097a63</title>
<path fill="none" stroke="#333333" stroke-width="2" d="M400.08,-1876.5C400.08,-1876.5 535.99,-1876.5 535.99,-1876.5"/>
<polygon fill="#333333" stroke="#333333" stroke-width="2" points="535.99,-1880 545.99,-1876.5 535.99,-1873 535.99,-1880"/>
</g>
<!-- 163a5683e4ba481ba1fd0be50f3af399 -->
<g id="node19" class="node">
<title>163a5683e4ba481ba1fd0be50f3af399</title>
<image xlink:href="C:\Users\qxo0881\AppData\Local\Programs\Python\Python310\lib\site-packages\resources/generic/blank\blank.png" width="101px" height="101px" preserveAspectRatio="xMinYMin meet" x="16" y="-790"/>
<text text-anchor="middle" x="66.5" y="-673.6" font-family="Sans-Serif" font-size="13.00" fill="#2d3436">Legend:</text>
<text text-anchor="middle" x="66.5" y="-659.6" font-family="Sans-Serif" font-size="13.00" fill="#2d3436">solid = data path</text>
<text text-anchor="middle" x="66.5" y="-645.6" font-family="Sans-Serif" font-size="13.00" fill="#2d3436"> dashed green = inference response</text>
<text text-anchor="middle" x="66.5" y="-631.6" font-family="Sans-Serif" font-size="13.00" fill="#2d3436"> dotted = ops/alerts</text>
</g>
</g>
</svg>
