<?xml version="1.0" encoding="UTF-8" standalone="no"?>
<!DOCTYPE svg PUBLIC "-//W3C//DTD SVG 1.1//EN"
 "http://www.w3.org/Graphics/SVG/1.1/DTD/svg11.dtd">
<!-- Generated by graphviz version 2.41.20190407.0914 (20190407.0914)
 -->
<!-- Title: tinyllama_architecture Pages: 1 -->
<svg width="1848pt" height="2109pt"
 viewBox="0.00 0.00 1848.00 2109.00" xmlns="http://www.w3.org/2000/svg" xmlns:xlink="http://www.w3.org/1999/xlink">
<g id="graph0" class="graph" transform="scale(1 1) rotate(0) translate(144 1965)">
<title>tinyllama_architecture</title>
<polygon fill="white" stroke="transparent" points="-144,144 -144,-1965 1704,-1965 1704,144 -144,144"/>
<text text-anchor="middle" x="780" y="-10" font-family="Sans-Serif" font-size="20.00" fill="#2d3436">tinyllama_architecture</text>
<g id="clust2" class="cluster">
<title>cluster_CI/CD Pipeline</title>
<path fill="#e5f5fd" stroke="#aeb6be" stroke-width="2" d="M534,-38C534,-38 1540,-38 1540,-38 1546,-38 1552,-44 1552,-50 1552,-50 1552,-531 1552,-531 1552,-537 1546,-543 1540,-543 1540,-543 534,-543 534,-543 528,-543 522,-537 522,-531 522,-531 522,-50 522,-50 522,-44 528,-38 534,-38"/>
<text text-anchor="middle" x="569" y="-529.4" font-family="Sans-Serif" font-size="12.00" fill="#2d3436">CI/CD Pipeline</text>
</g>
<g id="clust1" class="cluster">
<title>cluster_Edge / API</title>
<path fill="#e5f5fd" stroke="#aeb6be" stroke-width="2" d="M232,-551C232,-551 627,-551 627,-551 633,-551 639,-557 639,-563 639,-563 639,-923 639,-923 639,-929 633,-935 627,-935 627,-935 232,-935 232,-935 226,-935 220,-929 220,-923 220,-923 220,-563 220,-563 220,-557 226,-551 232,-551"/>
<text text-anchor="middle" x="257" y="-921.4" font-family="Sans-Serif" font-size="12.00" fill="#2d3436">Edge / API</text>
</g>
<g id="clust3" class="cluster">
<title>cluster_Compute Nodes</title>
<path fill="#e5f5fd" stroke="#aeb6be" stroke-width="2" d="M534,-1372C534,-1372 931.5,-1372 931.5,-1372 937.5,-1372 943.5,-1378 943.5,-1384 943.5,-1384 943.5,-1801 943.5,-1801 943.5,-1807 937.5,-1813 931.5,-1813 931.5,-1813 534,-1813 534,-1813 528,-1813 522,-1807 522,-1801 522,-1801 522,-1384 522,-1384 522,-1378 528,-1372 534,-1372"/>
<text text-anchor="middle" x="572.5" y="-1799.4" font-family="Sans-Serif" font-size="12.00" fill="#2d3436">Compute Nodes</text>
</g>
<!-- e9d4e3470fa741b09fd83e48c8a3d9d1 -->
<g id="node1" class="node">
<title>e9d4e3470fa741b09fd83e48c8a3d9d1</title>
<image xlink:href="C:\Users\qxo0881\AppData\Local\Programs\Python\Python310\lib\site-packages\resources/aws/general\users.png" width="101px" height="101px" preserveAspectRatio="xMinYMin meet" x="0" y="-796.5"/>
<text text-anchor="middle" x="50.5" y="-680.6" font-family="Sans-Serif" font-size="13.00" fill="#2d3436">Mobile App</text>
<text text-anchor="middle" x="50.5" y="-666.6" font-family="Sans-Serif" font-size="13.00" fill="#2d3436">Flutter</text>
</g>
<!-- df067df067904d14800d3e7d182219de -->
<g id="node2" class="node">
<title>df067df067904d14800d3e7d182219de</title>
<image xlink:href="C:\Users\qxo0881\AppData\Local\Programs\Python\Python310\lib\site-packages\resources/aws/network\cloudfront.png" width="101px" height="101px" preserveAspectRatio="xMinYMin meet" x="228" y="-887.5"/>
<text text-anchor="middle" x="278.5" y="-772.1" font-family="Sans-Serif" font-size="13.00" fill="#2d3436">CloudFront (optional)</text>
</g>
<!-- e9d4e3470fa741b09fd83e48c8a3d9d1&#45;&gt;df067df067904d14800d3e7d182219de -->
<g id="edge1" class="edge">
<title>e9d4e3470fa741b09fd83e48c8a3d9d1&#45;&gt;df067df067904d14800d3e7d182219de</title>
<path fill="none" stroke="#333333" stroke-width="2" d="M101.1,-808.83C101.1,-808.83 217.65,-808.83 217.65,-808.83"/>
<polygon fill="#333333" stroke="#333333" stroke-width="2" points="217.65,-812.33 227.65,-808.83 217.65,-805.33 217.65,-812.33"/>
<text text-anchor="middle" x="164.5" y="-749.6" font-family="Sans-Serif" font-size="13.00" fill="#2d3436">HTTPS</text>
</g>
<!-- ac0838758c634b9b875a8823e646eb1d -->
<g id="node4" class="node">
<title>ac0838758c634b9b875a8823e646eb1d</title>
<image xlink:href="C:\Users\qxo0881\AppData\Local\Programs\Python\Python310\lib\site-packages\resources/aws/security\cognito.png" width="101px" height="101px" preserveAspectRatio="xMinYMin meet" x="228" y="-678.5"/>
<text text-anchor="middle" x="278.5" y="-563.1" font-family="Sans-Serif" font-size="13.00" fill="#2d3436">Cognito JWT Auth</text>
</g>
<!-- e9d4e3470fa741b09fd83e48c8a3d9d1&#45;&gt;ac0838758c634b9b875a8823e646eb1d -->
<g id="edge3" class="edge">
<title>e9d4e3470fa741b09fd83e48c8a3d9d1&#45;&gt;ac0838758c634b9b875a8823e646eb1d</title>
<path fill="none" stroke="#333333" stroke-width="2" stroke-dasharray="1,5" d="M101.1,-679.75C101.1,-679.75 217.65,-679.75 217.65,-679.75"/>
<polygon fill="#333333" stroke="#333333" stroke-width="2" points="217.65,-683.25 227.65,-679.75 217.65,-676.25 217.65,-683.25"/>
<text text-anchor="middle" x="164.5" y="-645.6" font-family="Sans-Serif" font-size="13.00" fill="#2d3436">Auth flow</text>
</g>
<!-- df067df067904d14800d3e7d182219de&#45;&gt;e9d4e3470fa741b09fd83e48c8a3d9d1 -->
<g id="edge21" class="edge">
<title>df067df067904d14800d3e7d182219de&#45;&gt;e9d4e3470fa741b09fd83e48c8a3d9d1</title>
<path fill="none" stroke="green" stroke-width="2" stroke-dasharray="5,2" d="M227.9,-788.67C227.9,-788.67 111.35,-788.67 111.35,-788.67"/>
<polygon fill="green" stroke="green" stroke-width="2" points="111.35,-785.17 101.35,-788.67 111.35,-792.17 111.35,-785.17"/>
<text text-anchor="middle" x="164.5" y="-840.6" font-family="Sans-Serif" font-size="13.00" fill="#2d3436">Response</text>
</g>
<!-- 365ead61beb84606af41588609073164 -->
<g id="node3" class="node">
<title>365ead61beb84606af41588609073164</title>
<image xlink:href="C:\Users\qxo0881\AppData\Local\Programs\Python\Python310\lib\site-packages\resources/aws/network\api-gateway.png" width="101px" height="101px" preserveAspectRatio="xMinYMin meet" x="530" y="-784.5"/>
<text text-anchor="middle" x="580.5" y="-669.1" font-family="Sans-Serif" font-size="13.00" fill="#2d3436">API Gateway</text>
</g>
<!-- df067df067904d14800d3e7d182219de&#45;&gt;365ead61beb84606af41588609073164 -->
<g id="edge2" class="edge">
<title>df067df067904d14800d3e7d182219de&#45;&gt;365ead61beb84606af41588609073164</title>
<path fill="none" stroke="#333333" stroke-width="2" d="M329.05,-779.83C329.05,-779.83 519.79,-779.83 519.79,-779.83"/>
<polygon fill="#333333" stroke="#333333" stroke-width="2" points="519.79,-783.33 529.79,-779.83 519.79,-776.33 519.79,-783.33"/>
</g>
<!-- 365ead61beb84606af41588609073164&#45;&gt;df067df067904d14800d3e7d182219de -->
<g id="edge20" class="edge">
<title>365ead61beb84606af41588609073164&#45;&gt;df067df067904d14800d3e7d182219de</title>
<path fill="none" stroke="green" stroke-width="2" stroke-dasharray="5,2" d="M529.95,-791.17C529.95,-791.17 339.21,-791.17 339.21,-791.17"/>
<polygon fill="green" stroke="green" stroke-width="2" points="339.21,-787.67 329.21,-791.17 339.21,-794.67 339.21,-787.67"/>
<text text-anchor="middle" x="429.5" y="-777.6" font-family="Sans-Serif" font-size="13.00" fill="#2d3436">Response</text>
</g>
<!-- 73e597c3ba9b4981bd3b3d4087f95b80 -->
<g id="node5" class="node">
<title>73e597c3ba9b4981bd3b3d4087f95b80</title>
<image xlink:href="C:\Users\qxo0881\AppData\Local\Programs\Python\Python310\lib\site-packages\resources/aws/compute\lambda.png" width="101px" height="101px" preserveAspectRatio="xMinYMin meet" x="834.5" y="-670.5"/>
<text text-anchor="middle" x="885" y="-555.1" font-family="Sans-Serif" font-size="13.00" fill="#2d3436">Lambda Router</text>
</g>
<!-- 365ead61beb84606af41588609073164&#45;&gt;73e597c3ba9b4981bd3b3d4087f95b80 -->
<g id="edge5" class="edge">
<title>365ead61beb84606af41588609073164&#45;&gt;73e597c3ba9b4981bd3b3d4087f95b80</title>
<path fill="none" stroke="#333333" stroke-width="2" d="M631.12,-677C631.12,-677 824.26,-677 824.26,-677"/>
<polygon fill="#333333" stroke="#333333" stroke-width="2" points="824.26,-680.5 834.26,-677 824.26,-673.5 824.26,-680.5"/>
</g>
<!-- ac0838758c634b9b875a8823e646eb1d&#45;&gt;365ead61beb84606af41588609073164 -->
<g id="edge4" class="edge">
<title>ac0838758c634b9b875a8823e646eb1d&#45;&gt;365ead61beb84606af41588609073164</title>
<path fill="none" stroke="#333333" stroke-width="2" stroke-dasharray="1,5" d="M329.05,-681C329.05,-681 519.79,-681 519.79,-681"/>
<polygon fill="#333333" stroke="#333333" stroke-width="2" points="519.79,-684.5 529.79,-681 519.79,-677.5 519.79,-684.5"/>
<text text-anchor="middle" x="429.5" y="-639.6" font-family="Sans-Serif" font-size="13.00" fill="#2d3436">Authorizer</text>
</g>
<!-- 73e597c3ba9b4981bd3b3d4087f95b80&#45;&gt;365ead61beb84606af41588609073164 -->
<g id="edge19" class="edge">
<title>73e597c3ba9b4981bd3b3d4087f95b80&#45;&gt;365ead61beb84606af41588609073164</title>
<path fill="none" stroke="green" stroke-width="2" stroke-dasharray="5,2" d="M834.38,-671.25C834.38,-671.25 641.24,-671.25 641.24,-671.25"/>
<polygon fill="green" stroke="green" stroke-width="2" points="641.24,-667.75 631.24,-671.25 641.24,-674.75 641.24,-667.75"/>
<text text-anchor="middle" x="729.5" y="-737.6" font-family="Sans-Serif" font-size="13.00" fill="#2d3436">Response</text>
</g>
<!-- 282087a346454fca9146a61c587d134d -->
<g id="node6" class="node">
<title>282087a346454fca9146a61c587d134d</title>
<image xlink:href="C:\Users\qxo0881\AppData\Local\Programs\Python\Python310\lib\site-packages\resources/aws/database\elasticache.png" width="101px" height="101px" preserveAspectRatio="xMinYMin meet" x="1113" y="-1092.5"/>
<text text-anchor="middle" x="1163.5" y="-977.1" font-family="Sans-Serif" font-size="13.00" fill="#2d3436">ElastiCache (Redis)</text>
</g>
<!-- 73e597c3ba9b4981bd3b3d4087f95b80&#45;&gt;282087a346454fca9146a61c587d134d -->
<g id="edge6" class="edge">
<title>73e597c3ba9b4981bd3b3d4087f95b80&#45;&gt;282087a346454fca9146a61c587d134d</title>
<path fill="none" stroke="#333333" stroke-width="2" d="M935.54,-597.17C975.64,-597.17 1025,-597.17 1025,-597.17 1025,-597.17 1025,-1019.17 1025,-1019.17 1025,-1019.17 1102.71,-1019.17 1102.71,-1019.17"/>
<polygon fill="#333333" stroke="#333333" stroke-width="2" points="1102.71,-1022.67 1112.71,-1019.17 1102.71,-1015.67 1102.71,-1022.67"/>
<text text-anchor="middle" x="1018.5" y="-754.6" font-family="Sans-Serif" font-size="13.00" fill="#2d3436">Enqueue (job)</text>
</g>
<!-- 23d50d304aae401d8ae69caa540c7a3e -->
<g id="node20" class="node">
<title>23d50d304aae401d8ae69caa540c7a3e</title>
<image xlink:href="C:\Users\qxo0881\AppData\Local\Programs\Python\Python310\lib\site-packages\resources/aws/management\cloudwatch.png" width="101px" height="101px" preserveAspectRatio="xMinYMin meet" x="1113" y="-868.5"/>
<text text-anchor="middle" x="1163.5" y="-752.6" font-family="Sans-Serif" font-size="13.00" fill="#2d3436">CloudWatch</text>
<text text-anchor="middle" x="1163.5" y="-738.6" font-family="Sans-Serif" font-size="13.00" fill="#2d3436">logs + metrics</text>
</g>
<!-- 73e597c3ba9b4981bd3b3d4087f95b80&#45;&gt;23d50d304aae401d8ae69caa540c7a3e -->
<g id="edge27" class="edge">
<title>73e597c3ba9b4981bd3b3d4087f95b80&#45;&gt;23d50d304aae401d8ae69caa540c7a3e</title>
<path fill="none" stroke="#333333" stroke-width="2" d="M885,-688.74C885,-718.97 885,-747.75 885,-747.75 885,-747.75 1102.74,-747.75 1102.74,-747.75"/>
<polygon fill="#333333" stroke="#333333" stroke-width="2" points="1102.74,-751.25 1112.74,-747.75 1102.74,-744.25 1102.74,-751.25"/>
</g>
<!-- 8d8d15685bab406483ce8d59da870ad3 -->
<g id="node14" class="node">
<title>8d8d15685bab406483ce8d59da870ad3</title>
<image xlink:href="C:\Users\qxo0881\AppData\Local\Programs\Python\Python310\lib\site-packages\resources/aws/compute\ec2.png" width="101px" height="101px" preserveAspectRatio="xMinYMin meet" x="530" y="-1513.5"/>
<text text-anchor="middle" x="580.5" y="-1397.6" font-family="Sans-Serif" font-size="13.00" fill="#2d3436">X1</text>
<text text-anchor="middle" x="580.5" y="-1383.6" font-family="Sans-Serif" font-size="13.00" fill="#2d3436">Hibernated EC2 (g4dn/g5)</text>
</g>
<!-- 282087a346454fca9146a61c587d134d&#45;&gt;8d8d15685bab406483ce8d59da870ad3 -->
<g id="edge16" class="edge">
<title>282087a346454fca9146a61c587d134d&#45;&gt;8d8d15685bab406483ce8d59da870ad3</title>
<path fill="none" stroke="#333333" stroke-width="2" d="M1112.83,-1064.83C971.11,-1064.83 581,-1064.83 581,-1064.83 581,-1064.83 581,-1369.53 581,-1369.53"/>
<polygon fill="#333333" stroke="#333333" stroke-width="2" points="577.5,-1369.53 581,-1379.53 584.5,-1369.53 577.5,-1369.53"/>
<text text-anchor="middle" x="885" y="-1059.6" font-family="Sans-Serif" font-size="13.00" fill="#2d3436">Dequeue</text>
<text text-anchor="middle" x="885" y="-1045.6" font-family="Sans-Serif" font-size="13.00" fill="#2d3436">(wake if hibernated)</text>
</g>
<!-- e2895806c4e944f6a182724f55c1c78d -->
<g id="node7" class="node">
<title>e2895806c4e944f6a182724f55c1c78d</title>
<image xlink:href="C:\Users\qxo0881\AppData\Local\Programs\Python\Python310\lib\site-packages\resources/aws/security\secrets-manager.png" width="101px" height="101px" preserveAspectRatio="xMinYMin meet" x="530" y="-481.5"/>
<text text-anchor="middle" x="580.5" y="-365.6" font-family="Sans-Serif" font-size="13.00" fill="#2d3436">Secrets Manager</text>
<text text-anchor="middle" x="580.5" y="-351.6" font-family="Sans-Serif" font-size="13.00" fill="#2d3436">API &amp; Keys</text>
</g>
<!-- e2895806c4e944f6a182724f55c1c78d&#45;&gt;73e597c3ba9b4981bd3b3d4087f95b80 -->
<g id="edge14" class="edge">
<title>e2895806c4e944f6a182724f55c1c78d&#45;&gt;73e597c3ba9b4981bd3b3d4087f95b80</title>
<path fill="none" stroke="#333333" stroke-width="2" d="M581,-514.04C581,-536.88 581,-555.5 581,-555.5 581,-555.5 824.46,-555.5 824.46,-555.5"/>
<polygon fill="#333333" stroke="#333333" stroke-width="2" points="824.46,-559 834.46,-555.5 824.46,-552 824.46,-559"/>
<text text-anchor="middle" x="729.5" y="-500.6" font-family="Sans-Serif" font-size="13.00" fill="#2d3436">Get/Put</text>
</g>
<!-- 6035f91029224260ad05e83797a72a4b -->
<g id="node9" class="node">
<title>6035f91029224260ad05e83797a72a4b</title>
<image xlink:href="C:\Users\qxo0881\AppData\Local\Programs\Python\Python310\lib\site-packages\resources/aws/devtools\codebuild.png" width="101px" height="101px" preserveAspectRatio="xMinYMin meet" x="834.5" y="-337.5"/>
<text text-anchor="middle" x="885" y="-221.6" font-family="Sans-Serif" font-size="13.00" fill="#2d3436">CodeBuild</text>
<text text-anchor="middle" x="885" y="-207.6" font-family="Sans-Serif" font-size="13.00" fill="#2d3436">build+tests</text>
</g>
<!-- e2895806c4e944f6a182724f55c1c78d&#45;&gt;6035f91029224260ad05e83797a72a4b -->
<g id="edge15" class="edge">
<title>e2895806c4e944f6a182724f55c1c78d&#45;&gt;6035f91029224260ad05e83797a72a4b</title>
<path fill="none" stroke="#333333" stroke-width="2" d="M631.12,-359C631.12,-359 824.26,-359 824.26,-359"/>
<polygon fill="#333333" stroke="#333333" stroke-width="2" points="824.26,-362.5 834.26,-359 824.26,-355.5 824.26,-362.5"/>
<text text-anchor="middle" x="729.5" y="-316.6" font-family="Sans-Serif" font-size="13.00" fill="#2d3436">Get</text>
</g>
<!-- 64777a8e2bc94c239923ba32a305d1d2 -->
<g id="node8" class="node">
<title>64777a8e2bc94c239923ba32a305d1d2</title>
<image xlink:href="C:\Users\qxo0881\AppData\Local\Programs\Python\Python310\lib\site-packages\resources/aws/devtools\codepipeline.png" width="101px" height="101px" preserveAspectRatio="xMinYMin meet" x="530" y="-257.5"/>
<text text-anchor="middle" x="580.5" y="-142.1" font-family="Sans-Serif" font-size="13.00" fill="#2d3436">CodePipeline</text>
</g>
<!-- 64777a8e2bc94c239923ba32a305d1d2&#45;&gt;6035f91029224260ad05e83797a72a4b -->
<g id="edge7" class="edge">
<title>64777a8e2bc94c239923ba32a305d1d2&#45;&gt;6035f91029224260ad05e83797a72a4b</title>
<path fill="none" stroke="#333333" stroke-width="2" d="M631.12,-227.83C631.12,-227.83 824.26,-227.83 824.26,-227.83"/>
<polygon fill="#333333" stroke="#333333" stroke-width="2" points="824.26,-231.33 834.26,-227.83 824.26,-224.33 824.26,-231.33"/>
</g>
<!-- 1ca8048c6708482aaf840ba66b232d20 -->
<g id="node10" class="node">
<title>1ca8048c6708482aaf840ba66b232d20</title>
<image xlink:href="C:\Users\qxo0881\AppData\Local\Programs\Python\Python310\lib\site-packages\resources/aws/compute\ec2-image-builder.png" width="101px" height="101px" preserveAspectRatio="xMinYMin meet" x="1443" y="-445.5"/>
<text text-anchor="middle" x="1493.5" y="-329.6" font-family="Sans-Serif" font-size="13.00" fill="#2d3436">EC2 Image Builder</text>
<text text-anchor="middle" x="1493.5" y="-315.6" font-family="Sans-Serif" font-size="13.00" fill="#2d3436">(AMI bake)</text>
</g>
<!-- 6035f91029224260ad05e83797a72a4b&#45;&gt;1ca8048c6708482aaf840ba66b232d20 -->
<g id="edge8" class="edge">
<title>6035f91029224260ad05e83797a72a4b&#45;&gt;1ca8048c6708482aaf840ba66b232d20</title>
<path fill="none" stroke="#333333" stroke-width="2" d="M935.57,-362.75C935.57,-362.75 1432.76,-362.75 1432.76,-362.75"/>
<polygon fill="#333333" stroke="#333333" stroke-width="2" points="1432.76,-366.25 1442.76,-362.75 1432.76,-359.25 1432.76,-366.25"/>
<text text-anchor="middle" x="1163.5" y="-503.6" font-family="Sans-Serif" font-size="13.00" fill="#2d3436">Build AMI</text>
</g>
<!-- f96cd24b0afb4e71aa865a3f79b086da -->
<g id="node11" class="node">
<title>f96cd24b0afb4e71aa865a3f79b086da</title>
<image xlink:href="C:\Users\qxo0881\AppData\Local\Programs\Python\Python310\lib\site-packages\resources/generic/blank\blank.png" width="101px" height="101px" preserveAspectRatio="xMinYMin meet" x="1113" y="-337.5"/>
<text text-anchor="middle" x="1163.5" y="-222.1" font-family="Sans-Serif" font-size="13.00" fill="#2d3436">Terraform Cloud</text>
</g>
<!-- 6035f91029224260ad05e83797a72a4b&#45;&gt;f96cd24b0afb4e71aa865a3f79b086da -->
<g id="edge10" class="edge">
<title>6035f91029224260ad05e83797a72a4b&#45;&gt;f96cd24b0afb4e71aa865a3f79b086da</title>
<path fill="none" stroke="#333333" stroke-width="2" d="M935.76,-287C935.76,-287 1102.62,-287 1102.62,-287"/>
<polygon fill="#333333" stroke="#333333" stroke-width="2" points="1102.62,-290.5 1112.62,-287 1102.62,-283.5 1102.62,-290.5"/>
<text text-anchor="middle" x="1018.5" y="-290.6" font-family="Sans-Serif" font-size="13.00" fill="#2d3436">IaC plan/apply</text>
</g>
<!-- 995ebce0d6e2431881b696ebe584434f -->
<g id="node12" class="node">
<title>995ebce0d6e2431881b696ebe584434f</title>
<image xlink:href="C:\Users\qxo0881\AppData\Local\Programs\Python\Python310\lib\site-packages\resources/generic/blank\blank.png" width="101px" height="101px" preserveAspectRatio="xMinYMin meet" x="1443" y="-193.5"/>
<text text-anchor="middle" x="1493.5" y="-77.6" font-family="Sans-Serif" font-size="13.00" fill="#2d3436">EBS Snapshot</text>
<text text-anchor="middle" x="1493.5" y="-63.6" font-family="Sans-Serif" font-size="13.00" fill="#2d3436">(/model + /docker_cache)</text>
</g>
<!-- 6035f91029224260ad05e83797a72a4b&#45;&gt;995ebce0d6e2431881b696ebe584434f -->
<g id="edge9" class="edge">
<title>6035f91029224260ad05e83797a72a4b&#45;&gt;995ebce0d6e2431881b696ebe584434f</title>
<path fill="none" stroke="#333333" stroke-width="2" d="M935.57,-211.25C935.57,-211.25 1432.76,-211.25 1432.76,-211.25"/>
<polygon fill="#333333" stroke="#333333" stroke-width="2" points="1432.76,-214.75 1442.76,-211.25 1432.76,-207.75 1432.76,-214.75"/>
<text text-anchor="middle" x="1163.5" y="-135.6" font-family="Sans-Serif" font-size="13.00" fill="#2d3436">Create snapshot</text>
<text text-anchor="middle" x="1163.5" y="-121.6" font-family="Sans-Serif" font-size="13.00" fill="#2d3436">/model + /docker_cache</text>
</g>
<!-- f96cd24b0afb4e71aa865a3f79b086da&#45;&gt;1ca8048c6708482aaf840ba66b232d20 -->
<g id="edge11" class="edge">
<title>f96cd24b0afb4e71aa865a3f79b086da&#45;&gt;1ca8048c6708482aaf840ba66b232d20</title>
<path fill="none" stroke="#333333" stroke-width="2" d="M1214.34,-333.75C1214.34,-333.75 1432.87,-333.75 1432.87,-333.75"/>
<polygon fill="#333333" stroke="#333333" stroke-width="2" points="1432.87,-337.25 1442.87,-333.75 1432.87,-330.25 1432.87,-337.25"/>
<text text-anchor="middle" x="1337.5" y="-410.6" font-family="Sans-Serif" font-size="13.00" fill="#2d3436">Update Launch Template</text>
<text text-anchor="middle" x="1337.5" y="-396.6" font-family="Sans-Serif" font-size="13.00" fill="#2d3436">AMI &amp; Snapshot</text>
</g>
<!-- f96cd24b0afb4e71aa865a3f79b086da&#45;&gt;995ebce0d6e2431881b696ebe584434f -->
<g id="edge12" class="edge">
<title>f96cd24b0afb4e71aa865a3f79b086da&#45;&gt;995ebce0d6e2431881b696ebe584434f</title>
<path fill="none" stroke="#333333" stroke-width="2" d="M1214.34,-222.25C1214.34,-222.25 1432.87,-222.25 1432.87,-222.25"/>
<polygon fill="#333333" stroke="#333333" stroke-width="2" points="1432.87,-225.75 1442.87,-222.25 1432.87,-218.75 1432.87,-225.75"/>
<text text-anchor="middle" x="1337.5" y="-259.6" font-family="Sans-Serif" font-size="13.00" fill="#2d3436">Update Launch Template</text>
<text text-anchor="middle" x="1337.5" y="-245.6" font-family="Sans-Serif" font-size="13.00" fill="#2d3436">AMI &amp; Snapshot</text>
</g>
<!-- d670bccf74784cf9a2d400afa800d9cc -->
<g id="node13" class="node">
<title>d670bccf74784cf9a2d400afa800d9cc</title>
<image xlink:href="C:\Users\qxo0881\AppData\Local\Programs\Python\Python310\lib\site-packages\resources/generic/blank\blank.png" width="101px" height="101px" preserveAspectRatio="xMinYMin meet" x="1443" y="-684.5"/>
<text text-anchor="middle" x="1493.5" y="-568.6" font-family="Sans-Serif" font-size="13.00" fill="#2d3436">X1</text>
<text text-anchor="middle" x="1493.5" y="-554.6" font-family="Sans-Serif" font-size="13.00" fill="#2d3436">Hibernated EC2 (g4dn/g5)</text>
</g>
<!-- f96cd24b0afb4e71aa865a3f79b086da&#45;&gt;d670bccf74784cf9a2d400afa800d9cc -->
<g id="edge13" class="edge">
<title>f96cd24b0afb4e71aa865a3f79b086da&#45;&gt;d670bccf74784cf9a2d400afa800d9cc</title>
<path fill="none" stroke="#333333" stroke-width="2" stroke-dasharray="1,5" d="M1164,-355.61C1164,-459.01 1164,-642.83 1164,-642.83 1164,-642.83 1432.74,-642.83 1432.74,-642.83"/>
<polygon fill="#333333" stroke="#333333" stroke-width="2" points="1432.74,-646.33 1442.74,-642.83 1432.74,-639.33 1432.74,-646.33"/>
<text text-anchor="middle" x="1337.5" y="-651.6" font-family="Sans-Serif" font-size="13.00" fill="#2d3436">StopInstances</text>
<text text-anchor="middle" x="1337.5" y="-637.6" font-family="Sans-Serif" font-size="13.00" fill="#2d3436">(post&#45;deploy)</text>
</g>
<!-- 8d8d15685bab406483ce8d59da870ad3&#45;&gt;73e597c3ba9b4981bd3b3d4087f95b80 -->
<g id="edge18" class="edge">
<title>8d8d15685bab406483ce8d59da870ad3&#45;&gt;73e597c3ba9b4981bd3b3d4087f95b80</title>
<path fill="none" stroke="green" stroke-width="2" stroke-dasharray="5,2" d="M631.46,-1435.33C686.68,-1435.33 767,-1435.33 767,-1435.33 767,-1435.33 767,-682.75 767,-682.75 767,-682.75 824.27,-682.75 824.27,-682.75"/>
<polygon fill="green" stroke="green" stroke-width="2" points="824.27,-686.25 834.27,-682.75 824.27,-679.25 824.27,-686.25"/>
<text text-anchor="middle" x="729.5" y="-849.6" font-family="Sans-Serif" font-size="13.00" fill="#2d3436">Response</text>
</g>
<!-- c5ac48153b424d8fb217b85e5937066e -->
<g id="node15" class="node">
<title>c5ac48153b424d8fb217b85e5937066e</title>
<image xlink:href="C:\Users\qxo0881\AppData\Local\Programs\Python\Python310\lib\site-packages\resources/generic/blank\blank.png" width="101px" height="101px" preserveAspectRatio="xMinYMin meet" x="834.5" y="-1513.5"/>
<text text-anchor="middle" x="885" y="-1397.6" font-family="Sans-Serif" font-size="13.00" fill="#2d3436">Hibernate EBS</text>
<text text-anchor="middle" x="885" y="-1383.6" font-family="Sans-Serif" font-size="13.00" fill="#2d3436">100GB NVMe</text>
</g>
<!-- 8d8d15685bab406483ce8d59da870ad3&#45;&gt;c5ac48153b424d8fb217b85e5937066e -->
<g id="edge17" class="edge">
<title>8d8d15685bab406483ce8d59da870ad3&#45;&gt;c5ac48153b424d8fb217b85e5937066e</title>
<path fill="none" stroke="#333333" stroke-width="2" stroke-dasharray="1,5" d="M631.12,-1490.67C631.12,-1490.67 824.26,-1490.67 824.26,-1490.67"/>
<polygon fill="#333333" stroke="#333333" stroke-width="2" points="824.26,-1494.17 834.26,-1490.67 824.26,-1487.17 824.26,-1494.17"/>
<text text-anchor="middle" x="729.5" y="-1480.6" font-family="Sans-Serif" font-size="13.00" fill="#2d3436">RAM→EBS</text>
<text text-anchor="middle" x="729.5" y="-1466.6" font-family="Sans-Serif" font-size="13.00" fill="#2d3436">(hibernate)</text>
</g>
<!-- 5d755ddfde624ca5ad2ac7058ef28f4e -->
<g id="node18" class="node">
<title>5d755ddfde624ca5ad2ac7058ef28f4e</title>
<image xlink:href="C:\Users\qxo0881\AppData\Local\Programs\Python\Python310\lib\site-packages\resources/aws/storage\simple-storage-service-s3.png" width="101px" height="101px" preserveAspectRatio="xMinYMin meet" x="834.5" y="-1275.5"/>
<text text-anchor="middle" x="885" y="-1159.6" font-family="Sans-Serif" font-size="13.00" fill="#2d3436">Model Registry</text>
<text text-anchor="middle" x="885" y="-1145.6" font-family="Sans-Serif" font-size="13.00" fill="#2d3436">S3 + LakeFS</text>
</g>
<!-- 8d8d15685bab406483ce8d59da870ad3&#45;&gt;5d755ddfde624ca5ad2ac7058ef28f4e -->
<g id="edge24" class="edge">
<title>8d8d15685bab406483ce8d59da870ad3&#45;&gt;5d755ddfde624ca5ad2ac7058ef28f4e</title>
<path fill="none" stroke="#333333" stroke-width="2" d="M606,-1369.72C606,-1369.72 606,-1230.5 606,-1230.5 606,-1230.5 824.48,-1230.5 824.48,-1230.5"/>
<polygon fill="#333333" stroke="#333333" stroke-width="2" points="602.5,-1369.72 606,-1379.72 609.5,-1369.72 602.5,-1369.72"/>
<polygon fill="#333333" stroke="#333333" stroke-width="2" points="824.48,-1234 834.48,-1230.5 824.48,-1227 824.48,-1234"/>
<text text-anchor="middle" x="729.5" y="-1228.6" font-family="Sans-Serif" font-size="13.00" fill="#2d3436">Copy weights on wake</text>
</g>
<!-- 7039a2d543c048448b8f77f5c6bc8070 -->
<g id="node19" class="node">
<title>7039a2d543c048448b8f77f5c6bc8070</title>
<image xlink:href="C:\Users\qxo0881\AppData\Local\Programs\Python\Python310\lib\site-packages\resources/aws/management\systems-manager.png" width="101px" height="101px" preserveAspectRatio="xMinYMin meet" x="834.5" y="-879.5"/>
<text text-anchor="middle" x="885" y="-764.1" font-family="Sans-Serif" font-size="13.00" fill="#2d3436">SSM RunCommand</text>
</g>
<!-- 8d8d15685bab406483ce8d59da870ad3&#45;&gt;7039a2d543c048448b8f77f5c6bc8070 -->
<g id="edge25" class="edge">
<title>8d8d15685bab406483ce8d59da870ad3&#45;&gt;7039a2d543c048448b8f77f5c6bc8070</title>
<path fill="none" stroke="#333333" stroke-width="2" d="M556,-1379.69C556,-1212.08 556,-850 556,-850 556,-850 824.31,-850 824.31,-850"/>
<polygon fill="#333333" stroke="#333333" stroke-width="2" points="824.31,-853.5 834.31,-850 824.31,-846.5 824.31,-853.5"/>
</g>
<!-- 853e0413e0994c719a163a54b2ef2c4e -->
<g id="node16" class="node">
<title>853e0413e0994c719a163a54b2ef2c4e</title>
<image xlink:href="C:\Users\qxo0881\AppData\Local\Programs\Python\Python310\lib\site-packages\resources/aws/compute\ec2.png" width="101px" height="101px" preserveAspectRatio="xMinYMin meet" x="530" y="-1751.5"/>
<text text-anchor="middle" x="580.5" y="-1635.6" font-family="Sans-Serif" font-size="13.00" fill="#2d3436">Y1</text>
<text text-anchor="middle" x="580.5" y="-1621.6" font-family="Sans-Serif" font-size="13.00" fill="#2d3436">Training EC2 (p4/p5, ephemeral)</text>
</g>
<!-- 853e0413e0994c719a163a54b2ef2c4e&#45;&gt;64777a8e2bc94c239923ba32a305d1d2 -->
<g id="edge23" class="edge">
<title>853e0413e0994c719a163a54b2ef2c4e&#45;&gt;64777a8e2bc94c239923ba32a305d1d2</title>
<path fill="none" stroke="#333333" stroke-width="2" d="M631.1,-1673.33C663.31,-1673.33 699,-1673.33 699,-1673.33 699,-1673.33 699,-251.67 699,-251.67 699,-251.67 641.1,-251.67 641.1,-251.67"/>
<polygon fill="#333333" stroke="#333333" stroke-width="2" points="641.1,-248.17 631.1,-251.67 641.1,-255.17 641.1,-248.17"/>
<text text-anchor="middle" x="429.5" y="-677.6" font-family="Sans-Serif" font-size="13.00" fill="#2d3436">Trigger artefact rebuild</text>
</g>
<!-- e5cfe1a3f54748639854bb766a8310bf -->
<g id="node17" class="node">
<title>e5cfe1a3f54748639854bb766a8310bf</title>
<image xlink:href="C:\Users\qxo0881\AppData\Local\Programs\Python\Python310\lib\site-packages\resources/aws/storage\simple-storage-service-s3.png" width="101px" height="101px" preserveAspectRatio="xMinYMin meet" x="834.5" y="-1751.5"/>
<text text-anchor="middle" x="885" y="-1635.6" font-family="Sans-Serif" font-size="13.00" fill="#2d3436">S3</text>
<text text-anchor="middle" x="885" y="-1621.6" font-family="Sans-Serif" font-size="13.00" fill="#2d3436">(LoRA, weights, ckpt)</text>
</g>
<!-- 853e0413e0994c719a163a54b2ef2c4e&#45;&gt;e5cfe1a3f54748639854bb766a8310bf -->
<g id="edge22" class="edge">
<title>853e0413e0994c719a163a54b2ef2c4e&#45;&gt;e5cfe1a3f54748639854bb766a8310bf</title>
<path fill="none" stroke="#333333" stroke-width="2" d="M631.12,-1728.67C631.12,-1728.67 824.26,-1728.67 824.26,-1728.67"/>
<polygon fill="#333333" stroke="#333333" stroke-width="2" points="824.26,-1732.17 834.26,-1728.67 824.26,-1725.17 824.26,-1732.17"/>
<text text-anchor="middle" x="729.5" y="-1704.6" font-family="Sans-Serif" font-size="13.00" fill="#2d3436">Upload new weights</text>
</g>
<!-- 7039a2d543c048448b8f77f5c6bc8070&#45;&gt;23d50d304aae401d8ae69caa540c7a3e -->
<g id="edge26" class="edge">
<title>7039a2d543c048448b8f77f5c6bc8070&#45;&gt;23d50d304aae401d8ae69caa540c7a3e</title>
<path fill="none" stroke="#333333" stroke-width="2" d="M935.76,-829C935.76,-829 1102.62,-829 1102.62,-829"/>
<polygon fill="#333333" stroke="#333333" stroke-width="2" points="1102.62,-832.5 1112.62,-829 1102.62,-825.5 1102.62,-832.5"/>
</g>
<!-- f8104e92963d4c7d9d073f0ba39fa533 -->
<g id="node21" class="node">
<title>f8104e92963d4c7d9d073f0ba39fa533</title>
<image xlink:href="C:\Users\qxo0881\AppData\Local\Programs\Python\Python310\lib\site-packages\resources/aws/cost\budgets.png" width="101px" height="101px" preserveAspectRatio="xMinYMin meet" x="1443" y="-922.5"/>
<text text-anchor="middle" x="1493.5" y="-806.6" font-family="Sans-Serif" font-size="13.00" fill="#2d3436">AWS Budgets</text>
<text text-anchor="middle" x="1493.5" y="-792.6" font-family="Sans-Serif" font-size="13.00" fill="#2d3436">$ guardrail</text>
</g>
<!-- 23d50d304aae401d8ae69caa540c7a3e&#45;&gt;f8104e92963d4c7d9d073f0ba39fa533 -->
<g id="edge28" class="edge">
<title>23d50d304aae401d8ae69caa540c7a3e&#45;&gt;f8104e92963d4c7d9d073f0ba39fa533</title>
<path fill="none" stroke="#333333" stroke-width="2" d="M1214.34,-845C1214.34,-845 1432.87,-845 1432.87,-845"/>
<polygon fill="#333333" stroke="#333333" stroke-width="2" points="1432.87,-848.5 1442.87,-845 1432.87,-841.5 1432.87,-848.5"/>
</g>
<!-- c38c772be93e46cda2a823de3cb55296 -->
<g id="node22" class="node">
<title>c38c772be93e46cda2a823de3cb55296</title>
<image xlink:href="C:\Users\qxo0881\AppData\Local\Programs\Python\Python310\lib\site-packages\resources/generic/blank\blank.png" width="101px" height="101px" preserveAspectRatio="xMinYMin meet" x="0" y="-1077.5"/>
<text text-anchor="middle" x="50.5" y="-960.6" font-family="Sans-Serif" font-size="13.00" fill="#2d3436">Legend:</text>
<text text-anchor="middle" x="50.5" y="-946.6" font-family="Sans-Serif" font-size="13.00" fill="#2d3436">solid = data path</text>
<text text-anchor="middle" x="50.5" y="-932.6" font-family="Sans-Serif" font-size="13.00" fill="#2d3436"> dashed = external/optional</text>
<text text-anchor="middle" x="50.5" y="-918.6" font-family="Sans-Serif" font-size="13.00" fill="#2d3436"> dotted = Mgmt/ops</text>
<text text-anchor="middle" x="50.5" y="-904.6" font-family="Sans-Serif" font-size="13.00" fill="#2d3436"> green = response</text>
</g>
</g>
</svg>
