<?xml version="1.0" encoding="UTF-8" standalone="no"?>
<!DOCTYPE svg PUBLIC "-//W3C//DTD SVG 1.1//EN"
 "http://www.w3.org/Graphics/SVG/1.1/DTD/svg11.dtd">
<!-- Generated by graphviz version 2.41.20190407.0914 (20190407.0914)
 -->
<!-- Title: tinyllama_architecture_intermediate Pages: 1 -->
<svg width="1411pt" height="2492pt"
 viewBox="0.00 0.00 338.68 598.00" xmlns="http://www.w3.org/2000/svg" xmlns:xlink="http://www.w3.org/1999/xlink">
<g id="graph0" class="graph" transform="scale(0.93 0.93) rotate(0) translate(21.6 2284.6)">
<title>tinyllama_architecture_intermediate</title>
<polygon fill="white" stroke="transparent" points="-21.6,21.6 -21.6,-2284.6 1284.54,-2284.6 1284.54,21.6 -21.6,21.6"/>
<text text-anchor="middle" x="631.47" y="-9.6" font-family="Sans-Serif" font-size="18.00" fill="#2d3436">tinyllama_architecture_intermediate</text>
<g id="clust1" class="cluster">
<title>cluster_Edge / API</title>
<path fill="#e5f5fd" stroke="#aeb6be" stroke-width="2" d="M639.94,-1828C639.94,-1828 1013.4,-1828 1013.4,-1828 1019.4,-1828 1025.4,-1834 1025.4,-1840 1025.4,-1840 1025.4,-2243 1025.4,-2243 1025.4,-2249 1019.4,-2255 1013.4,-2255 1013.4,-2255 639.94,-2255 639.94,-2255 633.94,-2255 627.94,-2249 627.94,-2243 627.94,-2243 627.94,-1840 627.94,-1840 627.94,-1834 633.94,-1828 639.94,-1828"/>
<text text-anchor="middle" x="664.94" y="-2241.4" font-family="Sans-Serif" font-size="12.00" fill="#2d3436">Edge / API</text>
</g>
<g id="clust2" class="cluster">
<title>cluster_VPC – private subnets</title>
<path fill="#e5f5fd" stroke="#aeb6be" stroke-width="2" d="M313.04,-332C313.04,-332 1241.53,-332 1241.53,-332 1247.53,-332 1253.53,-338 1253.53,-344 1253.53,-344 1253.53,-750 1253.53,-750 1253.53,-756 1247.53,-762 1241.53,-762 1241.53,-762 313.04,-762 313.04,-762 307.04,-762 301.04,-756 301.04,-750 301.04,-750 301.04,-344 301.04,-344 301.04,-338 307.04,-332 313.04,-332"/>
<text text-anchor="middle" x="367.54" y="-748.4" font-family="Sans-Serif" font-size="12.00" fill="#2d3436">VPC – private subnets</text>
</g>
<g id="clust3" class="cluster">
<title>cluster_CI / AMI Pipeline</title>
<path fill="#e5f5fd" stroke="#aeb6be" stroke-width="2" d="M21.41,-1067C21.41,-1067 753.53,-1067 753.53,-1067 759.53,-1067 765.53,-1073 765.53,-1079 765.53,-1079 765.53,-1808 765.53,-1808 765.53,-1814 759.53,-1820 753.53,-1820 753.53,-1820 21.41,-1820 21.41,-1820 15.41,-1820 9.41,-1814 9.41,-1808 9.41,-1808 9.41,-1079 9.41,-1079 9.41,-1073 15.41,-1067 21.41,-1067"/>
<text text-anchor="middle" x="62.91" y="-1806.4" font-family="Sans-Serif" font-size="12.00" fill="#2d3436">CI / AMI Pipeline</text>
</g>
<!-- 1c4758f70a9441178da1123e718406b9 -->
<g id="node1" class="node">
<title>1c4758f70a9441178da1123e718406b9</title>
<image xlink:href="C:\Users\qxo0881\AppData\Local\Programs\Python\Python310\lib\site-packages\resources/onprem/client\user.png" width="101px" height="101px" preserveAspectRatio="xMinYMin meet" x="319.034" y="-1987.5"/>
<text text-anchor="middle" x="369.53" y="-1871.6" font-family="Sans-Serif" font-size="13.00" fill="#2d3436">Desktop GUI</text>
<text text-anchor="middle" x="369.53" y="-1857.6" font-family="Sans-Serif" font-size="13.00" fill="#2d3436">(HTTPS + JWT)</text>
</g>
<!-- becfbfbccceb41e49d3cf5bde6cf1d9a -->
<g id="node2" class="node">
<title>becfbfbccceb41e49d3cf5bde6cf1d9a</title>
<image xlink:href="C:\Users\qxo0881\AppData\Local\Programs\Python\Python310\lib\site-packages\resources/aws/network\cloudfront.png" width="101px" height="101px" preserveAspectRatio="xMinYMin meet" x="646.034" y="-1969.5"/>
<text text-anchor="middle" x="696.53" y="-1853.6" font-family="Sans-Serif" font-size="13.00" fill="#2d3436">CloudFront</text>
<text text-anchor="middle" x="696.53" y="-1839.6" font-family="Sans-Serif" font-size="13.00" fill="#2d3436">(optional)</text>
</g>
<!-- 1c4758f70a9441178da1123e718406b9&#45;&gt;becfbfbccceb41e49d3cf5bde6cf1d9a -->
<g id="edge1" class="edge">
<title>1c4758f70a9441178da1123e718406b9&#45;&gt;becfbfbccceb41e49d3cf5bde6cf1d9a</title>
<path fill="none" stroke="#333333" stroke-width="2" d="M420.27,-1952.67C420.27,-1952.67 635.95,-1952.67 635.95,-1952.67"/>
<polygon fill="#333333" stroke="#333333" stroke-width="2" points="635.95,-1956.17 645.95,-1952.67 635.95,-1949.17 635.95,-1956.17"/>
<text text-anchor="middle" x="533.53" y="-1982.6" font-family="Sans-Serif" font-size="13.00" fill="#2d3436">HTTPS</text>
</g>
<!-- c41141afd978425f9de0baf9e5d78cc5 -->
<g id="node4" class="node">
<title>c41141afd978425f9de0baf9e5d78cc5</title>
<image xlink:href="C:\Users\qxo0881\AppData\Local\Programs\Python\Python310\lib\site-packages\resources/aws/security\cognito.png" width="101px" height="101px" preserveAspectRatio="xMinYMin meet" x="646.034" y="-2193.5"/>
<text text-anchor="middle" x="696.53" y="-2077.6" font-family="Sans-Serif" font-size="13.00" fill="#2d3436">Cognito</text>
<text text-anchor="middle" x="696.53" y="-2063.6" font-family="Sans-Serif" font-size="13.00" fill="#2d3436">Hosted UI + JWT</text>
</g>
<!-- 1c4758f70a9441178da1123e718406b9&#45;&gt;c41141afd978425f9de0baf9e5d78cc5 -->
<g id="edge3" class="edge">
<title>1c4758f70a9441178da1123e718406b9&#45;&gt;c41141afd978425f9de0baf9e5d78cc5</title>
<path fill="none" stroke="#333333" stroke-width="2" stroke-dasharray="1,5" d="M369.53,-2020.32C369.53,-2045.33 369.53,-2066.25 369.53,-2066.25 369.53,-2066.25 635.8,-2066.25 635.8,-2066.25"/>
<polygon fill="#333333" stroke="#333333" stroke-width="2" points="635.8,-2069.75 645.8,-2066.25 635.8,-2062.75 635.8,-2069.75"/>
<text text-anchor="middle" x="533.53" y="-2102.6" font-family="Sans-Serif" font-size="13.00" fill="#2d3436">OAuth flow</text>
</g>
<!-- becfbfbccceb41e49d3cf5bde6cf1d9a&#45;&gt;1c4758f70a9441178da1123e718406b9 -->
<g id="edge25" class="edge">
<title>becfbfbccceb41e49d3cf5bde6cf1d9a&#45;&gt;1c4758f70a9441178da1123e718406b9</title>
<path fill="none" stroke="green" stroke-width="2" stroke-dasharray="5,2" d="M645.8,-1903.33C645.8,-1903.33 430.12,-1903.33 430.12,-1903.33"/>
<polygon fill="green" stroke="green" stroke-width="2" points="430.12,-1899.83 420.12,-1903.33 430.12,-1906.83 430.12,-1899.83"/>
<text text-anchor="middle" x="533.53" y="-1905.6" font-family="Sans-Serif" font-size="13.00" fill="#2d3436">Response</text>
</g>
<!-- 852d12f0daec47bb892191b1ac0008d5 -->
<g id="node3" class="node">
<title>852d12f0daec47bb892191b1ac0008d5</title>
<image xlink:href="C:\Users\qxo0881\AppData\Local\Programs\Python\Python310\lib\site-packages\resources/aws/network\api-gateway.png" width="101px" height="101px" preserveAspectRatio="xMinYMin meet" x="906.034" y="-1969.5"/>
<text text-anchor="middle" x="956.53" y="-1853.6" font-family="Sans-Serif" font-size="13.00" fill="#2d3436">API Gateway</text>
<text text-anchor="middle" x="956.53" y="-1839.6" font-family="Sans-Serif" font-size="13.00" fill="#2d3436">HTTP API</text>
</g>
<!-- becfbfbccceb41e49d3cf5bde6cf1d9a&#45;&gt;852d12f0daec47bb892191b1ac0008d5 -->
<g id="edge2" class="edge">
<title>becfbfbccceb41e49d3cf5bde6cf1d9a&#45;&gt;852d12f0daec47bb892191b1ac0008d5</title>
<path fill="none" stroke="#333333" stroke-width="2" d="M747.28,-1946.67C747.28,-1946.67 895.91,-1946.67 895.91,-1946.67"/>
<polygon fill="#333333" stroke="#333333" stroke-width="2" points="895.91,-1950.17 905.91,-1946.67 895.91,-1943.17 895.91,-1950.17"/>
</g>
<!-- 852d12f0daec47bb892191b1ac0008d5&#45;&gt;becfbfbccceb41e49d3cf5bde6cf1d9a -->
<g id="edge24" class="edge">
<title>852d12f0daec47bb892191b1ac0008d5&#45;&gt;becfbfbccceb41e49d3cf5bde6cf1d9a</title>
<path fill="none" stroke="green" stroke-width="2" stroke-dasharray="5,2" d="M905.79,-1891.33C905.79,-1891.33 757.15,-1891.33 757.15,-1891.33"/>
<polygon fill="green" stroke="green" stroke-width="2" points="757.15,-1887.83 747.15,-1891.33 757.15,-1894.83 757.15,-1887.83"/>
<text text-anchor="middle" x="826.53" y="-1912.6" font-family="Sans-Serif" font-size="13.00" fill="#2d3436">Response</text>
</g>
<!-- 92326165240342aaa32e67a5ee04efb6 -->
<g id="node5" class="node">
<title>92326165240342aaa32e67a5ee04efb6</title>
<image xlink:href="C:\Users\qxo0881\AppData\Local\Programs\Python\Python310\lib\site-packages\resources/aws/compute\lambda.png" width="101px" height="101px" preserveAspectRatio="xMinYMin meet" x="646.034" y="-1040.5"/>
<text text-anchor="middle" x="696.53" y="-925.1" font-family="Sans-Serif" font-size="13.00" fill="#2d3436">Lambda Router v2</text>
</g>
<!-- 852d12f0daec47bb892191b1ac0008d5&#45;&gt;92326165240342aaa32e67a5ee04efb6 -->
<g id="edge5" class="edge">
<title>852d12f0daec47bb892191b1ac0008d5&#45;&gt;92326165240342aaa32e67a5ee04efb6</title>
<path fill="none" stroke="#333333" stroke-width="2" d="M973.53,-1835.84C973.53,-1615.05 973.53,-1030.83 973.53,-1030.83 973.53,-1030.83 757.34,-1030.83 757.34,-1030.83"/>
<polygon fill="#333333" stroke="#333333" stroke-width="2" points="757.34,-1027.33 747.34,-1030.83 757.34,-1034.33 757.34,-1027.33"/>
</g>
<!-- c41141afd978425f9de0baf9e5d78cc5&#45;&gt;852d12f0daec47bb892191b1ac0008d5 -->
<g id="edge4" class="edge">
<title>c41141afd978425f9de0baf9e5d78cc5&#45;&gt;852d12f0daec47bb892191b1ac0008d5</title>
<path fill="none" stroke="#333333" stroke-width="2" stroke-dasharray="1,5" d="M747.28,-2143C822.95,-2143 956.53,-2143 956.53,-2143 956.53,-2143 956.53,-2012.09 956.53,-2012.09"/>
<polygon fill="#333333" stroke="#333333" stroke-width="2" points="960.03,-2012.09 956.53,-2002.09 953.03,-2012.09 960.03,-2012.09"/>
<text text-anchor="middle" x="826.53" y="-2076.6" font-family="Sans-Serif" font-size="13.00" fill="#2d3436">Authorizer</text>
</g>
<!-- 92326165240342aaa32e67a5ee04efb6&#45;&gt;852d12f0daec47bb892191b1ac0008d5 -->
<g id="edge23" class="edge">
<title>92326165240342aaa32e67a5ee04efb6&#45;&gt;852d12f0daec47bb892191b1ac0008d5</title>
<path fill="none" stroke="green" stroke-width="2" stroke-dasharray="5,2" d="M747.09,-1044.67C818.56,-1044.67 940.53,-1044.67 940.53,-1044.67 940.53,-1044.67 940.53,-1825.96 940.53,-1825.96"/>
<polygon fill="green" stroke="green" stroke-width="2" points="937.03,-1825.96 940.53,-1835.96 944.03,-1825.96 937.03,-1825.96"/>
<text text-anchor="middle" x="826.53" y="-1423.6" font-family="Sans-Serif" font-size="13.00" fill="#2d3436">Response</text>
</g>
<!-- b2398e1643d0483693fe9a2e7439b9d1 -->
<g id="node6" class="node">
<title>b2398e1643d0483693fe9a2e7439b9d1</title>
<image xlink:href="C:\Users\qxo0881\AppData\Local\Programs\Python\Python310\lib\site-packages\resources/aws/database\elasticache.png" width="101px" height="101px" preserveAspectRatio="xMinYMin meet" x="906.034" y="-984.5"/>
<text text-anchor="middle" x="956.53" y="-868.6" font-family="Sans-Serif" font-size="13.00" fill="#2d3436">ElastiCache Redis</text>
<text text-anchor="middle" x="956.53" y="-854.6" font-family="Sans-Serif" font-size="13.00" fill="#2d3436">(job TTL 5 min)</text>
</g>
<!-- 92326165240342aaa32e67a5ee04efb6&#45;&gt;b2398e1643d0483693fe9a2e7439b9d1 -->
<g id="edge6" class="edge">
<title>92326165240342aaa32e67a5ee04efb6&#45;&gt;b2398e1643d0483693fe9a2e7439b9d1</title>
<path fill="none" stroke="#333333" stroke-width="2" d="M747.28,-985.17C747.28,-985.17 895.91,-985.17 895.91,-985.17"/>
<polygon fill="#333333" stroke="#333333" stroke-width="2" points="895.91,-988.67 905.91,-985.17 895.91,-981.67 895.91,-988.67"/>
<text text-anchor="middle" x="826.53" y="-1010.6" font-family="Sans-Serif" font-size="13.00" fill="#2d3436">Enqueue job</text>
</g>
<!-- a8a75bd114f34aef93a02eaa4a25a1ad -->
<g id="node19" class="node">
<title>a8a75bd114f34aef93a02eaa4a25a1ad</title>
<image xlink:href="C:\Users\qxo0881\AppData\Local\Programs\Python\Python310\lib\site-packages\resources/aws/management\cloudwatch.png" width="101px" height="101px" preserveAspectRatio="xMinYMin meet" x="906.034" y="-249.5"/>
<text text-anchor="middle" x="956.53" y="-133.6" font-family="Sans-Serif" font-size="13.00" fill="#2d3436">CloudWatch</text>
<text text-anchor="middle" x="956.53" y="-119.6" font-family="Sans-Serif" font-size="13.00" fill="#2d3436">metrics + logs</text>
</g>
<!-- 92326165240342aaa32e67a5ee04efb6&#45;&gt;a8a75bd114f34aef93a02eaa4a25a1ad -->
<g id="edge20" class="edge">
<title>92326165240342aaa32e67a5ee04efb6&#45;&gt;a8a75bd114f34aef93a02eaa4a25a1ad</title>
<path fill="none" stroke="#333333" stroke-width="2" d="M747.17,-953.33C783.67,-953.33 826.53,-953.33 826.53,-953.33 826.53,-953.33 826.53,-226.67 826.53,-226.67 826.53,-226.67 895.9,-226.67 895.9,-226.67"/>
<polygon fill="#333333" stroke="#333333" stroke-width="2" points="895.9,-230.17 905.9,-226.67 895.9,-223.17 895.9,-230.17"/>
</g>
<!-- 1e2182caf3334740898ef0104ae3b097 -->
<g id="node7" class="node">
<title>1e2182caf3334740898ef0104ae3b097</title>
<image xlink:href="C:\Users\qxo0881\AppData\Local\Programs\Python\Python310\lib\site-packages\resources/aws/compute\ec2.png" width="101px" height="101px" preserveAspectRatio="xMinYMin meet" x="319.034" y="-666.5"/>
<text text-anchor="middle" x="369.53" y="-550.1" font-family="Sans-Serif" font-size="13.00" fill="#2d3436">X1 EC2</text>
<text text-anchor="middle" x="369.53" y="-536.1" font-family="Sans-Serif" font-size="13.00" fill="#2d3436">g4dn.xlarge</text>
<text text-anchor="middle" x="369.53" y="-522.1" font-family="Sans-Serif" font-size="13.00" fill="#2d3436">(stop/start,</text>
<text text-anchor="middle" x="369.53" y="-508.1" font-family="Sans-Serif" font-size="13.00" fill="#2d3436">no RAM preservation)</text>
</g>
<!-- b2398e1643d0483693fe9a2e7439b9d1&#45;&gt;1e2182caf3334740898ef0104ae3b097 -->
<g id="edge7" class="edge">
<title>b2398e1643d0483693fe9a2e7439b9d1&#45;&gt;1e2182caf3334740898ef0104ae3b097</title>
<path fill="none" stroke="#333333" stroke-width="2" d="M956.53,-850.86C956.53,-790.06 956.53,-718.17 956.53,-718.17 956.53,-718.17 430.09,-718.17 430.09,-718.17"/>
<polygon fill="#333333" stroke="#333333" stroke-width="2" points="430.09,-714.67 420.09,-718.17 430.09,-721.67 430.09,-714.67"/>
<text text-anchor="middle" x="696.53" y="-852.6" font-family="Sans-Serif" font-size="13.00" fill="#2d3436">Dequeue / wake</text>
</g>
<!-- 1e2182caf3334740898ef0104ae3b097&#45;&gt;92326165240342aaa32e67a5ee04efb6 -->
<g id="edge13" class="edge">
<title>1e2182caf3334740898ef0104ae3b097&#45;&gt;92326165240342aaa32e67a5ee04efb6</title>
<path fill="none" stroke="green" stroke-width="2" stroke-dasharray="5,2" d="M420.27,-722.83C512.12,-722.83 696.53,-722.83 696.53,-722.83 696.53,-722.83 696.53,-911.2 696.53,-911.2"/>
<polygon fill="green" stroke="green" stroke-width="2" points="693.03,-911.2 696.53,-921.2 700.03,-911.2 693.03,-911.2"/>
<text text-anchor="middle" x="533.53" y="-969.6" font-family="Sans-Serif" font-size="13.00" fill="#2d3436">Inference response</text>
</g>
<!-- 66cb5e91000747158be25d6c3a4125f5 -->
<g id="node8" class="node">
<title>66cb5e91000747158be25d6c3a4125f5</title>
<image xlink:href="C:\Users\qxo0881\AppData\Local\Programs\Python\Python310\lib\site-packages\resources/aws/storage\elastic-block-store-ebs.png" width="101px" height="101px" preserveAspectRatio="xMinYMin meet" x="646.034" y="-459.5"/>
<text text-anchor="middle" x="696.53" y="-344.1" font-family="Sans-Serif" font-size="13.00" fill="#2d3436">100 GiB gp3 cache</text>
</g>
<!-- 1e2182caf3334740898ef0104ae3b097&#45;&gt;66cb5e91000747158be25d6c3a4125f5 -->
<g id="edge8" class="edge">
<title>1e2182caf3334740898ef0104ae3b097&#45;&gt;66cb5e91000747158be25d6c3a4125f5</title>
<path fill="none" stroke="#333333" stroke-width="2" stroke-dasharray="1,5" d="M420.27,-513.5C512.12,-513.5 696.53,-513.5 696.53,-513.5 696.53,-513.5 696.53,-487.54 696.53,-487.54"/>
<polygon fill="#333333" stroke="#333333" stroke-width="2" points="700.03,-487.54 696.53,-477.54 693.03,-487.54 700.03,-487.54"/>
<text text-anchor="middle" x="533.53" y="-482.6" font-family="Sans-Serif" font-size="13.00" fill="#2d3436">Stop/Start</text>
<text text-anchor="middle" x="533.53" y="-468.6" font-family="Sans-Serif" font-size="13.00" fill="#2d3436">(no RAM preservation)</text>
</g>
<!-- bfaef3126f474927ac1d1b6c2ac6adf2 -->
<g id="node9" class="node">
<title>bfaef3126f474927ac1d1b6c2ac6adf2</title>
<image xlink:href="C:\Users\qxo0881\AppData\Local\Programs\Python\Python310\lib\site-packages\resources/aws/network\nat-gateway.png" width="101px" height="101px" preserveAspectRatio="xMinYMin meet" x="646.034" y="-654.5"/>
<text text-anchor="middle" x="696.53" y="-539.1" font-family="Sans-Serif" font-size="13.00" fill="#2d3436">NAT GW</text>
</g>
<!-- 1e2182caf3334740898ef0104ae3b097&#45;&gt;bfaef3126f474927ac1d1b6c2ac6adf2 -->
<g id="edge9" class="edge">
<title>1e2182caf3334740898ef0104ae3b097&#45;&gt;bfaef3126f474927ac1d1b6c2ac6adf2</title>
<path fill="none" stroke="#333333" stroke-width="2" stroke-dasharray="1,5" d="M420.27,-604C420.27,-604 635.95,-604 635.95,-604"/>
<polygon fill="#333333" stroke="#333333" stroke-width="2" points="635.95,-607.5 645.95,-604 635.95,-600.5 635.95,-607.5"/>
<text text-anchor="middle" x="533.53" y="-615.6" font-family="Sans-Serif" font-size="13.00" fill="#2d3436">HTTPS egress</text>
</g>
<!-- ce04c661d8a541b7b29630caff985723 -->
<g id="node11" class="node">
<title>ce04c661d8a541b7b29630caff985723</title>
<image xlink:href="C:\Users\qxo0881\AppData\Local\Programs\Python\Python310\lib\site-packages\resources/aws/security\key-management-service.png" width="101px" height="101px" preserveAspectRatio="xMinYMin meet" x="1134.03" y="-695.5"/>
<text text-anchor="middle" x="1184.53" y="-580.1" font-family="Sans-Serif" font-size="13.00" fill="#2d3436">KMS CMK</text>
</g>
<!-- 1e2182caf3334740898ef0104ae3b097&#45;&gt;ce04c661d8a541b7b29630caff985723 -->
<g id="edge12" class="edge">
<title>1e2182caf3334740898ef0104ae3b097&#45;&gt;ce04c661d8a541b7b29630caff985723</title>
<path fill="none" stroke="#333333" stroke-width="2" stroke-dasharray="1,5" d="M420.21,-693C420.21,-693 1123.78,-693 1123.78,-693"/>
<polygon fill="#333333" stroke="#333333" stroke-width="2" points="1123.78,-696.5 1133.78,-693 1123.78,-689.5 1123.78,-696.5"/>
<text text-anchor="middle" x="826.53" y="-722.6" font-family="Sans-Serif" font-size="13.00" fill="#2d3436">Encrypt EBS</text>
</g>
<!-- cbebe0e563f749208dc127dcb7e8ff0c -->
<g id="node18" class="node">
<title>cbebe0e563f749208dc127dcb7e8ff0c</title>
<image xlink:href="C:\Users\qxo0881\AppData\Local\Programs\Python\Python310\lib\site-packages\resources/aws/management\systems-manager.png" width="101px" height="101px" preserveAspectRatio="xMinYMin meet" x="646.034" y="-249.5"/>
<text text-anchor="middle" x="696.53" y="-133.6" font-family="Sans-Serif" font-size="13.00" fill="#2d3436">SSM RunCommand</text>
<text text-anchor="middle" x="696.53" y="-119.6" font-family="Sans-Serif" font-size="13.00" fill="#2d3436">(sync&#45;lora)</text>
</g>
<!-- 1e2182caf3334740898ef0104ae3b097&#45;&gt;cbebe0e563f749208dc127dcb7e8ff0c -->
<g id="edge18" class="edge">
<title>1e2182caf3334740898ef0104ae3b097&#45;&gt;cbebe0e563f749208dc127dcb7e8ff0c</title>
<path fill="none" stroke="#333333" stroke-width="2" d="M369.53,-504.25C369.53,-380.73 369.53,-199 369.53,-199 369.53,-199 635.8,-199 635.8,-199"/>
<polygon fill="#333333" stroke="#333333" stroke-width="2" points="635.8,-202.5 645.8,-199 635.8,-195.5 635.8,-202.5"/>
</g>
<!-- c5dc8d7b9a9443cb9bef5ba703cc941f -->
<g id="node10" class="node">
<title>c5dc8d7b9a9443cb9bef5ba703cc941f</title>
<image xlink:href="C:\Users\qxo0881\AppData\Local\Programs\Python\Python310\lib\site-packages\resources/aws/storage\simple-storage-service-s3.png" width="101px" height="101px" preserveAspectRatio="xMinYMin meet" x="906.034" y="-641.5"/>
<text text-anchor="middle" x="956.53" y="-526.1" font-family="Sans-Serif" font-size="13.00" fill="#2d3436">S3 tinyllama&#45;models</text>
</g>
<!-- bfaef3126f474927ac1d1b6c2ac6adf2&#45;&gt;c5dc8d7b9a9443cb9bef5ba703cc941f -->
<g id="edge10" class="edge">
<title>bfaef3126f474927ac1d1b6c2ac6adf2&#45;&gt;c5dc8d7b9a9443cb9bef5ba703cc941f</title>
<path fill="none" stroke="#333333" stroke-width="2" d="M747.28,-597.5C747.28,-597.5 895.91,-597.5 895.91,-597.5"/>
<polygon fill="#333333" stroke="#333333" stroke-width="2" points="895.91,-601 905.91,-597.5 895.91,-594 895.91,-601"/>
</g>
<!-- c5dc8d7b9a9443cb9bef5ba703cc941f&#45;&gt;ce04c661d8a541b7b29630caff985723 -->
<g id="edge11" class="edge">
<title>c5dc8d7b9a9443cb9bef5ba703cc941f&#45;&gt;ce04c661d8a541b7b29630caff985723</title>
<path fill="none" stroke="#333333" stroke-width="2" stroke-dasharray="1,5" d="M1007.13,-618C1007.13,-618 1123.68,-618 1123.68,-618"/>
<polygon fill="#333333" stroke="#333333" stroke-width="2" points="1123.68,-621.5 1133.68,-618 1123.68,-614.5 1123.68,-621.5"/>
<text text-anchor="middle" x="1070.53" y="-612.6" font-family="Sans-Serif" font-size="13.00" fill="#2d3436">Encrypt</text>
</g>
<!-- ffeb60877c0747128711fc51836c2f88 -->
<g id="node12" class="node">
<title>ffeb60877c0747128711fc51836c2f88</title>
<image xlink:href="C:\Users\qxo0881\AppData\Local\Programs\Python\Python310\lib\site-packages\resources/aws/security\secrets-manager.png" width="101px" height="101px" preserveAspectRatio="xMinYMin meet" x="28.0338" y="-1353.5"/>
<text text-anchor="middle" x="78.53" y="-1238.1" font-family="Sans-Serif" font-size="13.00" fill="#2d3436">Secrets Manager</text>
</g>
<!-- ffeb60877c0747128711fc51836c2f88&#45;&gt;92326165240342aaa32e67a5ee04efb6 -->
<g id="edge14" class="edge">
<title>ffeb60877c0747128711fc51836c2f88&#45;&gt;92326165240342aaa32e67a5ee04efb6</title>
<path fill="none" stroke="#333333" stroke-width="2" d="M129.11,-1295.25C276.7,-1295.25 696.53,-1295.25 696.53,-1295.25 696.53,-1295.25 696.53,-1068.5 696.53,-1068.5"/>
<polygon fill="#333333" stroke="#333333" stroke-width="2" points="700.03,-1068.5 696.53,-1058.5 693.03,-1068.5 700.03,-1068.5"/>
<text text-anchor="middle" x="369.53" y="-1174.6" font-family="Sans-Serif" font-size="13.00" fill="#2d3436">OpenAI key</text>
</g>
<!-- 64763cb3840146b0a29c0271d55e3ac5 -->
<g id="node13" class="node">
<title>64763cb3840146b0a29c0271d55e3ac5</title>
<image xlink:href="C:\Users\qxo0881\AppData\Local\Programs\Python\Python310\lib\site-packages\resources/aws/devtools\codepipeline.png" width="101px" height="101px" preserveAspectRatio="xMinYMin meet" x="28.0338" y="-1548.5"/>
<text text-anchor="middle" x="78.53" y="-1433.1" font-family="Sans-Serif" font-size="13.00" fill="#2d3436">CodePipeline</text>
</g>
<!-- 826298a492f34d88a7aa7ed9e3b93502 -->
<g id="node14" class="node">
<title>826298a492f34d88a7aa7ed9e3b93502</title>
<image xlink:href="C:\Users\qxo0881\AppData\Local\Programs\Python\Python310\lib\site-packages\resources/aws/devtools\codebuild.png" width="101px" height="101px" preserveAspectRatio="xMinYMin meet" x="319.034" y="-1489.5"/>
<text text-anchor="middle" x="369.53" y="-1373.6" font-family="Sans-Serif" font-size="13.00" fill="#2d3436">CodeBuild</text>
<text text-anchor="middle" x="369.53" y="-1359.6" font-family="Sans-Serif" font-size="13.00" fill="#2d3436">unit tests ≥90%</text>
</g>
<!-- 64763cb3840146b0a29c0271d55e3ac5&#45;&gt;826298a492f34d88a7aa7ed9e3b93502 -->
<g id="edge15" class="edge">
<title>64763cb3840146b0a29c0271d55e3ac5&#45;&gt;826298a492f34d88a7aa7ed9e3b93502</title>
<path fill="none" stroke="#333333" stroke-width="2" d="M129.22,-1475.75C129.22,-1475.75 308.94,-1475.75 308.94,-1475.75"/>
<polygon fill="#333333" stroke="#333333" stroke-width="2" points="308.94,-1479.25 318.94,-1475.75 308.94,-1472.25 308.94,-1479.25"/>
</g>
<!-- 826298a492f34d88a7aa7ed9e3b93502&#45;&gt;92326165240342aaa32e67a5ee04efb6 -->
<g id="edge17" class="edge">
<title>826298a492f34d88a7aa7ed9e3b93502&#45;&gt;92326165240342aaa32e67a5ee04efb6</title>
<path fill="none" stroke="#333333" stroke-width="2" d="M369.53,-1355.86C369.53,-1226.07 369.53,-990 369.53,-990 369.53,-990 635.8,-990 635.8,-990"/>
<polygon fill="#333333" stroke="#333333" stroke-width="2" points="635.8,-993.5 645.8,-990 635.8,-986.5 635.8,-993.5"/>
<text text-anchor="middle" x="533.53" y="-1345.6" font-family="Sans-Serif" font-size="13.00" fill="#2d3436">Deploy Lambda</text>
</g>
<!-- 54a1d664925e4ae3913b12de1f0b45ce -->
<g id="node15" class="node">
<title>54a1d664925e4ae3913b12de1f0b45ce</title>
<image xlink:href="C:\Users\qxo0881\AppData\Local\Programs\Python\Python310\lib\site-packages\resources/aws/compute\ec2-image-builder.png" width="101px" height="101px" preserveAspectRatio="xMinYMin meet" x="646.034" y="-1489.5"/>
<text text-anchor="middle" x="696.53" y="-1373.6" font-family="Sans-Serif" font-size="13.00" fill="#2d3436">EC2 Image Builder</text>
<text text-anchor="middle" x="696.53" y="-1359.6" font-family="Sans-Serif" font-size="13.00" fill="#2d3436">AMI bake</text>
</g>
<!-- 826298a492f34d88a7aa7ed9e3b93502&#45;&gt;54a1d664925e4ae3913b12de1f0b45ce -->
<g id="edge16" class="edge">
<title>826298a492f34d88a7aa7ed9e3b93502&#45;&gt;54a1d664925e4ae3913b12de1f0b45ce</title>
<path fill="none" stroke="#333333" stroke-width="2" d="M420.27,-1439C420.27,-1439 635.95,-1439 635.95,-1439"/>
<polygon fill="#333333" stroke="#333333" stroke-width="2" points="635.95,-1442.5 645.95,-1439 635.95,-1435.5 635.95,-1442.5"/>
<text text-anchor="middle" x="533.53" y="-1442.6" font-family="Sans-Serif" font-size="13.00" fill="#2d3436">Build AMI</text>
</g>
<!-- 213b62401b534d748b36e24a08425828 -->
<g id="node16" class="node">
<title>213b62401b534d748b36e24a08425828</title>
<image xlink:href="C:\Users\qxo0881\AppData\Local\Programs\Python\Python310\lib\site-packages\resources/aws/cost\budgets.png" width="101px" height="101px" preserveAspectRatio="xMinYMin meet" x="28.0338" y="-1758.5"/>
<text text-anchor="middle" x="78.53" y="-1642.6" font-family="Sans-Serif" font-size="13.00" fill="#2d3436">AWS Budgets</text>
<text text-anchor="middle" x="78.53" y="-1628.6" font-family="Sans-Serif" font-size="13.00" fill="#2d3436">€15 warn / €20 stop</text>
</g>
<!-- 213b62401b534d748b36e24a08425828&#45;&gt;1c4758f70a9441178da1123e718406b9 -->
<g id="edge21" class="edge">
<title>213b62401b534d748b36e24a08425828&#45;&gt;1c4758f70a9441178da1123e718406b9</title>
<path fill="none" stroke="#333333" stroke-width="2" stroke-dasharray="1,5" d="M129.22,-1708C212.6,-1708 369.53,-1708 369.53,-1708 369.53,-1708 369.53,-1843.68 369.53,-1843.68"/>
<polygon fill="#333333" stroke="#333333" stroke-width="2" points="366.03,-1843.68 369.53,-1853.68 373.03,-1843.68 366.03,-1843.68"/>
<text text-anchor="middle" x="223.53" y="-1825.6" font-family="Sans-Serif" font-size="13.00" fill="#2d3436">Alarm → desktop</text>
</g>
<!-- 9ebb9ef80404422c824a3a93d01e1f87 -->
<g id="node17" class="node">
<title>9ebb9ef80404422c824a3a93d01e1f87</title>
<path fill="none" stroke="black" d="M117.03,-1176.5C117.03,-1176.5 40.03,-1176.5 40.03,-1176.5 34.03,-1176.5 28.03,-1170.5 28.03,-1164.5 28.03,-1164.5 28.03,-1087.5 28.03,-1087.5 28.03,-1081.5 34.03,-1075.5 40.03,-1075.5 40.03,-1075.5 117.03,-1075.5 117.03,-1075.5 123.03,-1075.5 129.03,-1081.5 129.03,-1087.5 129.03,-1087.5 129.03,-1164.5 129.03,-1164.5 129.03,-1170.5 123.03,-1176.5 117.03,-1176.5"/>
<text text-anchor="middle" x="78.53" y="-1093.1" font-family="Sans-Serif" font-size="13.00" fill="#2d3436">AWS Config</text>
<text text-anchor="middle" x="78.53" y="-1079.1" font-family="Sans-Serif" font-size="13.00" fill="#2d3436">rules</text>
</g>
<!-- 9ebb9ef80404422c824a3a93d01e1f87&#45;&gt;a8a75bd114f34aef93a02eaa4a25a1ad -->
<g id="edge22" class="edge">
<title>9ebb9ef80404422c824a3a93d01e1f87&#45;&gt;a8a75bd114f34aef93a02eaa4a25a1ad</title>
<path fill="none" stroke="#333333" stroke-width="2" stroke-dasharray="1,5" d="M78.53,-1075.34C78.53,-897.34 78.53,-311.25 78.53,-311.25 78.53,-311.25 956.53,-311.25 956.53,-311.25 956.53,-311.25 956.53,-292.05 956.53,-292.05"/>
<polygon fill="#333333" stroke="#333333" stroke-width="2" points="960.03,-292.05 956.53,-282.05 953.03,-292.05 960.03,-292.05"/>
<text text-anchor="middle" x="533.53" y="-31.6" font-family="Sans-Serif" font-size="13.00" fill="#2d3436">Compliance</text>
</g>
<!-- cbebe0e563f749208dc127dcb7e8ff0c&#45;&gt;a8a75bd114f34aef93a02eaa4a25a1ad -->
<g id="edge19" class="edge">
<title>cbebe0e563f749208dc127dcb7e8ff0c&#45;&gt;a8a75bd114f34aef93a02eaa4a25a1ad</title>
<path fill="none" stroke="#333333" stroke-width="2" d="M747.28,-171.33C747.28,-171.33 895.91,-171.33 895.91,-171.33"/>
<polygon fill="#333333" stroke="#333333" stroke-width="2" points="895.91,-174.83 905.91,-171.33 895.91,-167.83 895.91,-174.83"/>
</g>
<!-- b277f08293aa447aa878c8c4c5ef349d -->
<g id="node20" class="node">
<title>b277f08293aa447aa878c8c4c5ef349d</title>
<image xlink:href="C:\Users\qxo0881\AppData\Local\Programs\Python\Python310\lib\site-packages\resources/generic/blank\blank.png" width="101px" height="101px" preserveAspectRatio="xMinYMin meet" x="28.0338" y="-2011.5"/>
<text text-anchor="middle" x="78.53" y="-1895.1" font-family="Sans-Serif" font-size="13.00" fill="#2d3436">Legend:</text>
<text text-anchor="middle" x="78.53" y="-1881.1" font-family="Sans-Serif" font-size="13.00" fill="#2d3436">• solid = data path</text>
<text text-anchor="middle" x="78.53" y="-1867.1" font-family="Sans-Serif" font-size="13.00" fill="#2d3436">• dashed green = inference response</text>
<text text-anchor="middle" x="78.53" y="-1853.1" font-family="Sans-Serif" font-size="13.00" fill="#2d3436">• dotted = ops / security / alerts</text>
</g>
</g>
</svg>
