<?xml version="1.0" encoding="UTF-8" standalone="no"?>
<!DOCTYPE svg PUBLIC "-//W3C//DTD SVG 1.1//EN"
 "http://www.w3.org/Graphics/SVG/1.1/DTD/svg11.dtd">
<!-- Generated by graphviz version 2.41.20190407.0914 (20190407.0914)
 -->
<!-- Title: tinyllama_mvp_architecture Pages: 1 -->
<svg width="1060pt" height="1200pt"
 viewBox="0.00 0.00 1060.00 1200.00" xmlns="http://www.w3.org/2000/svg" xmlns:xlink="http://www.w3.org/1999/xlink">
<g id="graph0" class="graph" transform="scale(1 1) rotate(0) translate(144 1056)">
<title>tinyllama_mvp_architecture</title>
<polygon fill="white" stroke="transparent" points="-144,144 -144,-1056 916,-1056 916,144 -144,144"/>
<text text-anchor="middle" x="386" y="-10" font-family="Sans-Serif" font-size="20.00" fill="#2d3436">tinyllama_mvp_architecture</text>
<g id="clust2" class="cluster">
<title>cluster_CI/CD Pipeline</title>
<path fill="#e5f5fd" stroke="#aeb6be" stroke-width="2" d="M214,-38C214,-38 523,-38 523,-38 529,-38 535,-44 535,-50 535,-50 535,-439 535,-439 535,-445 529,-451 523,-451 523,-451 214,-451 214,-451 208,-451 202,-445 202,-439 202,-439 202,-50 202,-50 202,-44 208,-38 214,-38"/>
<text text-anchor="middle" x="249" y="-437.4" font-family="Sans-Serif" font-size="12.00" fill="#2d3436">CI/CD Pipeline</text>
</g>
<g id="clust1" class="cluster">
<title>cluster_API Layer</title>
<path fill="#e5f5fd" stroke="#aeb6be" stroke-width="2" d="M214,-486C214,-486 523,-486 523,-486 529,-486 535,-492 535,-498 535,-498 535,-649 535,-649 535,-655 529,-661 523,-661 523,-661 214,-661 214,-661 208,-661 202,-655 202,-649 202,-649 202,-498 202,-498 202,-492 208,-486 214,-486"/>
<text text-anchor="middle" x="236" y="-647.4" font-family="Sans-Serif" font-size="12.00" fill="#2d3436">API Layer</text>
</g>
<!-- 501075e65008462088e644f9f0d8eb96 -->
<g id="node1" class="node">
<title>501075e65008462088e644f9f0d8eb96</title>
<image xlink:href="C:\Users\qxo0881\AppData\Local\Programs\Python\Python310\lib\site-packages\resources/aws/general\users.png" width="101px" height="101px" preserveAspectRatio="xMinYMin meet" x="0" y="-613.5"/>
<text text-anchor="middle" x="50.5" y="-497.6" font-family="Sans-Serif" font-size="13.00" fill="#2d3436">Mobile App</text>
<text text-anchor="middle" x="50.5" y="-483.6" font-family="Sans-Serif" font-size="13.00" fill="#2d3436">Flutter</text>
</g>
<!-- 1d7a12e25ceb49f3a7c2630813cb7777 -->
<g id="node2" class="node">
<title>1d7a12e25ceb49f3a7c2630813cb7777</title>
<image xlink:href="C:\Users\qxo0881\AppData\Local\Programs\Python\Python310\lib\site-packages\resources/aws/network\api-gateway.png" width="101px" height="101px" preserveAspectRatio="xMinYMin meet" x="210" y="-613.5"/>
<text text-anchor="middle" x="260.5" y="-498.1" font-family="Sans-Serif" font-size="13.00" fill="#2d3436">API Gateway</text>
</g>
<!-- 501075e65008462088e644f9f0d8eb96&#45;&gt;1d7a12e25ceb49f3a7c2630813cb7777 -->
<g id="edge1" class="edge">
<title>501075e65008462088e644f9f0d8eb96&#45;&gt;1d7a12e25ceb49f3a7c2630813cb7777</title>
<path fill="none" stroke="#333333" stroke-width="2" d="M101.07,-563C101.07,-563 199.64,-563 199.64,-563"/>
<polygon fill="#333333" stroke="#333333" stroke-width="2" points="199.64,-566.5 209.64,-563 199.64,-559.5 199.64,-566.5"/>
<text text-anchor="middle" x="155.5" y="-566.6" font-family="Sans-Serif" font-size="13.00" fill="#2d3436">HTTPS</text>
</g>
<!-- 9e9474fe447e410c828f8588ab929e09 -->
<g id="node3" class="node">
<title>9e9474fe447e410c828f8588ab929e09</title>
<image xlink:href="C:\Users\qxo0881\AppData\Local\Programs\Python\Python310\lib\site-packages\resources/aws/compute\lambda.png" width="101px" height="101px" preserveAspectRatio="xMinYMin meet" x="426" y="-613.5"/>
<text text-anchor="middle" x="476.5" y="-498.1" font-family="Sans-Serif" font-size="13.00" fill="#2d3436">Lambda Router</text>
</g>
<!-- 1d7a12e25ceb49f3a7c2630813cb7777&#45;&gt;9e9474fe447e410c828f8588ab929e09 -->
<g id="edge2" class="edge">
<title>1d7a12e25ceb49f3a7c2630813cb7777&#45;&gt;9e9474fe447e410c828f8588ab929e09</title>
<path fill="none" stroke="#333333" stroke-width="2" d="M311.14,-563C311.14,-563 415.8,-563 415.8,-563"/>
<polygon fill="#333333" stroke="#333333" stroke-width="2" points="415.8,-566.5 425.8,-563 415.8,-559.5 415.8,-566.5"/>
</g>
<!-- 17254b8b9a7c477d9392bfea8a2595d3 -->
<g id="node7" class="node">
<title>17254b8b9a7c477d9392bfea8a2595d3</title>
<image xlink:href="C:\Users\qxo0881\AppData\Local\Programs\Python\Python310\lib\site-packages\resources/aws/storage\simple-storage-service-s3.png" width="101px" height="101px" preserveAspectRatio="xMinYMin meet" x="671" y="-613.5"/>
<text text-anchor="middle" x="721.5" y="-498.1" font-family="Sans-Serif" font-size="13.00" fill="#2d3436">S3 (data or weights)</text>
</g>
<!-- 9e9474fe447e410c828f8588ab929e09&#45;&gt;17254b8b9a7c477d9392bfea8a2595d3 -->
<g id="edge6" class="edge">
<title>9e9474fe447e410c828f8588ab929e09&#45;&gt;17254b8b9a7c477d9392bfea8a2595d3</title>
<path fill="none" stroke="#333333" stroke-width="2" d="M527.26,-563C527.26,-563 660.8,-563 660.8,-563"/>
<polygon fill="#333333" stroke="#333333" stroke-width="2" points="660.8,-566.5 670.8,-563 660.8,-559.5 660.8,-566.5"/>
<text text-anchor="middle" x="599" y="-566.6" font-family="Sans-Serif" font-size="13.00" fill="#2d3436">Get/Put data</text>
</g>
<!-- 939e77c79d7f459285f6aeeb52df6afd -->
<g id="node4" class="node">
<title>939e77c79d7f459285f6aeeb52df6afd</title>
<image xlink:href="C:\Users\qxo0881\AppData\Local\Programs\Python\Python310\lib\site-packages\resources/aws/security\secrets-manager.png" width="101px" height="101px" preserveAspectRatio="xMinYMin meet" x="210" y="-389.5"/>
<text text-anchor="middle" x="260.5" y="-273.6" font-family="Sans-Serif" font-size="13.00" fill="#2d3436">Secrets Manager</text>
<text text-anchor="middle" x="260.5" y="-259.6" font-family="Sans-Serif" font-size="13.00" fill="#2d3436">API &amp; Keys</text>
</g>
<!-- 939e77c79d7f459285f6aeeb52df6afd&#45;&gt;9e9474fe447e410c828f8588ab929e09 -->
<g id="edge4" class="edge">
<title>939e77c79d7f459285f6aeeb52df6afd&#45;&gt;9e9474fe447e410c828f8588ab929e09</title>
<path fill="none" stroke="#333333" stroke-width="2" d="M311.26,-369.5C375.25,-369.5 477,-369.5 477,-369.5 477,-369.5 477,-484.23 477,-484.23"/>
<polygon fill="#333333" stroke="#333333" stroke-width="2" points="473.5,-484.23 477,-494.23 480.5,-484.23 473.5,-484.23"/>
<text text-anchor="middle" x="368.5" y="-401.6" font-family="Sans-Serif" font-size="13.00" fill="#2d3436">Get/Put</text>
</g>
<!-- 967603add0cb4437ae116c18cccc97da -->
<g id="node6" class="node">
<title>967603add0cb4437ae116c18cccc97da</title>
<image xlink:href="C:\Users\qxo0881\AppData\Local\Programs\Python\Python310\lib\site-packages\resources/aws/devtools\codebuild.png" width="101px" height="101px" preserveAspectRatio="xMinYMin meet" x="426" y="-284.5"/>
<text text-anchor="middle" x="476.5" y="-168.6" font-family="Sans-Serif" font-size="13.00" fill="#2d3436">CodeBuild</text>
<text text-anchor="middle" x="476.5" y="-154.6" font-family="Sans-Serif" font-size="13.00" fill="#2d3436">build+tests</text>
</g>
<!-- 939e77c79d7f459285f6aeeb52df6afd&#45;&gt;967603add0cb4437ae116c18cccc97da -->
<g id="edge5" class="edge">
<title>939e77c79d7f459285f6aeeb52df6afd&#45;&gt;967603add0cb4437ae116c18cccc97da</title>
<path fill="none" stroke="#333333" stroke-width="2" d="M311.14,-286.5C311.14,-286.5 415.8,-286.5 415.8,-286.5"/>
<polygon fill="#333333" stroke="#333333" stroke-width="2" points="415.8,-290 425.8,-286.5 415.8,-283 415.8,-290"/>
<text text-anchor="middle" x="368.5" y="-283.6" font-family="Sans-Serif" font-size="13.00" fill="#2d3436">Get</text>
</g>
<!-- a4b3b3a06aaf467fbcfe0e0da204343d -->
<g id="node5" class="node">
<title>a4b3b3a06aaf467fbcfe0e0da204343d</title>
<image xlink:href="C:\Users\qxo0881\AppData\Local\Programs\Python\Python310\lib\site-packages\resources/aws/devtools\codepipeline.png" width="101px" height="101px" preserveAspectRatio="xMinYMin meet" x="210" y="-165.5"/>
<text text-anchor="middle" x="260.5" y="-50.1" font-family="Sans-Serif" font-size="13.00" fill="#2d3436">CodePipeline</text>
</g>
<!-- a4b3b3a06aaf467fbcfe0e0da204343d&#45;&gt;967603add0cb4437ae116c18cccc97da -->
<g id="edge3" class="edge">
<title>a4b3b3a06aaf467fbcfe0e0da204343d&#45;&gt;967603add0cb4437ae116c18cccc97da</title>
<path fill="none" stroke="#333333" stroke-width="2" d="M311.14,-167.25C311.14,-167.25 415.8,-167.25 415.8,-167.25"/>
<polygon fill="#333333" stroke="#333333" stroke-width="2" points="415.8,-170.75 425.8,-167.25 415.8,-163.75 415.8,-170.75"/>
</g>
<!-- 78c51d92f00b4c7ba387e3ac5e972ed8 -->
<g id="node8" class="node">
<title>78c51d92f00b4c7ba387e3ac5e972ed8</title>
<image xlink:href="C:\Users\qxo0881\AppData\Local\Programs\Python\Python310\lib\site-packages\resources/aws/general\users.png" width="101px" height="101px" preserveAspectRatio="xMinYMin meet" x="0" y="-865.5"/>
<text text-anchor="middle" x="50.5" y="-749.6" font-family="Sans-Serif" font-size="13.00" fill="#2d3436">Legend:</text>
<text text-anchor="middle" x="50.5" y="-735.6" font-family="Sans-Serif" font-size="13.00" fill="#2d3436">MVP components only.</text>
<text text-anchor="middle" x="50.5" y="-721.6" font-family="Sans-Serif" font-size="13.00" fill="#2d3436">Add more blocks as you expand.</text>
</g>
</g>
</svg>
